
CASCADE Topology V1, (c) Matra-Datavision
Locations 1
1
-1.000000000000000 0.000000000000000 0.000000000000000 -0.000000000000030 
-0.000000000000000 -1.000000000000000 0.000000000000000 899.050000000000068 
0.000000000000000 0.000000000000000 1.000000000000000 -155.650000000000006 
Curve2ds 7
1 0.00000000000000000 3.14159265358979312 1.00000000000000000 0.00000000000000000 
8 3.14159265358979312 4.71238898038468967
1 0.00000000000000000 9.42477796076937935 1.00000000000000000 0.00000000000000000 
1 3.14159265358979312 0.00000000000000000 0.00000000000000000 1.00000000000000000 
2 0.00000000000000073 0.00000000000000624 0.00000000000000012 -1.00000000000000000 1.00000000000000000 0.00000000000000012 84.13500000000000512
1 4.71238898038468967 0.00000000000000000 0.00000000000000000 1.00000000000000000 
2 -0.00000000000000073 -0.00000000000000624 0.00000000000000012 1.00000000000000000 1.00000000000000000 -0.00000000000000012 84.13500000000000512
1 0.00000000000000000 9.42477796076937935 1.00000000000000000 0.00000000000000000 
Curves 6
2 229.00000000000000000 229.00000000000000000 0.00000000000001030 0.00000000000000000 -0.00000000000000000 1.00000000000000000 1.00000000000000000 0.00000000000000000 0.00000000000000000 -0.00000000000000000 1.00000000000000000 0.00000000000000000 144.86500000000000909
2 0.00000000000000000 229.00000000000002842 0.00000000000000000 0.00000000000000012 1.00000000000000000 0.00000000000000000 -1.00000000000000000 0.00000000000000012 0.00000000000000000 0.00000000000000000 -0.00000000000000000 1.00000000000000000 84.13500000000000512
2 228.99999999999997158 0.00000000000000000 0.00000000000000000 -1.00000000000000000 0.00000000000000018 0.00000000000000000 -0.00000000000000018 -1.00000000000000000 -0.00000000000000000 0.00000000000000000 -0.00000000000000000 1.00000000000000000 84.13500000000000512
2 0.00000000000000000 229.00000000000002842 0.00000000000000000 0.00000000000000012 1.00000000000000000 -0.00000000000000000 -1.00000000000000000 0.00000000000000012 0.00000000000000000 0.00000000000000000 0.00000000000000000 1.00000000000000000 73.16500000000000625
2 229.00000000000000000 229.00000000000000000 0.00000000000000896 0.00000000000000000 0.00000000000000000 1.00000000000000000 1.00000000000000000 0.00000000000000000 0.00000000000000000 0.00000000000000000 1.00000000000000000 0.00000000000000000 155.83499999999997954
2 228.99999999999997158 0.00000000000000000 0.00000000000000000 -1.00000000000000000 0.00000000000000018 0.00000000000000000 -0.00000000000000018 -1.00000000000000000 -0.00000000000000000 0.00000000000000000 0.00000000000000000 1.00000000000000000 73.16500000000000625
Polygon3D 0
PolygonOnTriangulations 0
Surfaces 4
10 3.14159265358979312 4.71238898038468967 3.14159265358979312 9.42477796076937935
5 229.00000000000000000 229.00000000000000000 0.00000000000000000 0.00000000000000000 -0.00000000000000000 1.00000000000000000 1.00000000000000000 0.00000000000000000 0.00000000000000000 -0.00000000000000000 1.00000000000000000 0.00000000000000000 229.00000000000000000 84.13500000000000512
1 -0.00000000000000624 229.00000000000005684 -0.00000000000000073 0.00000000000000000 1.00000000000000000 0.00000000000000000 0.00000000000000000 -0.00000000000000000 1.00000000000000000 1.00000000000000000 0.00000000000000000 -0.00000000000000000 
1 228.99999999999997158 -0.00000000000000624 0.00000000000000073 1.00000000000000000 0.00000000000000000 0.00000000000000000 -0.00000000000000000 0.00000000000000000 1.00000000000000000 0.00000000000000000 -1.00000000000000000 0.00000000000000000 
5 229.00000000000000000 229.00000000000000000 0.00000000000000000 0.00000000000000000 -0.00000000000000000 1.00000000000000000 1.00000000000000000 0.00000000000000000 0.00000000000000000 -0.00000000000000000 1.00000000000000000 0.00000000000000000 229.00000000000000000 73.16500000000000625
Triangulations 0

TShapes 22
Ve
0.000000100000016
84.134999999999991 229.000000000000000 0.000000000000000
0 0

0101101
*
Ve
0.000000100000016
229.000000000000000 84.134999999999991 0.000000000000000
0 0

0101101
*
Ed
 0.000000100000000 1 1 0
1  1 0 3.141592653589793 4.712388980384690
3  1 2G1 1 0 3.141592653589793 4.712388980384690
0

0101000
+22 0 -21 0 *
Ed
 0.000000100000000 1 1 0
1  2 0 3.141592653589793 9.424777960769379
2  3 1 0 3.141592653589793 9.424777960769379
2  4 2 0 3.141592653589793 9.424777960769379
4 C0 1 0 2 0
0

0101000
+22 0 -22 0 *
Ed
 0.000000100000000 1 1 0
1  3 0 3.141592653589793 9.424777960769379
2  5 1 0 3.141592653589793 9.424777960769379
2  6 3 0 3.141592653589793 9.424777960769379
4 C0 1 0 3 0
0

0101000
+21 0 -21 0 *
Wi

0101100
+20 0 -19 0 -20 0 +18 0 *
Fa
0  0.000000100000000 1 0

0101000
+17 0 *
Wi

0101100
+19 0 *
Ve
0.000000100000016
73.165000000000020 229.000000000000000 0.000000000000000
0 0

0101101
*
Ed
 0.000000100000000 1 1 0
2  3 4 0 3.141592653589793 9.424777960769379
1  4 0 3.141592653589793 9.424777960769379
0

0101000
+14 0 -14 0 *
Wi

0101100
-13 0 *
Fa
0  0.000000100000000 2 0

0101000
+15 0 +12 0 *
Ve
0.000000100000016
229.000000000000000 73.165000000000020 0.000000000000000
0 0

0101101
*
Ed
 0.000000100000000 1 1 0
1  5 0 3.141592653589793 4.712388980384690
3  1 7G1 4 0 3.141592653589793 4.712388980384690
0

0101000
+14 0 -10 0 *
Ed
 0.000000100000000 1 1 0
2  5 4 0 3.141592653589793 9.424777960769379
1  6 0 3.141592653589793 9.424777960769379
0

0101000
+10 0 -10 0 *
Wi

0101100
-9 0 -13 0 +9 0 +8 0 *
Fa
0  0.000000100000000 4 0

0101000
+7 0 *
Wi

0101100
-18 0 *
Wi

0101100
+8 0 *
Fa
0  0.000000100000000 3 0

0101000
+5 0 +4 0 *
Sh

0101100
+16 0 +11 0 -6 0 +3 0 *
So

1100100
+2 0 *

+1 1 