
CASCADE Topology V1, (c) Matra-Datavision
Locations 62
1
1.000000000000000 0.000000000000000 0.000000000000000 -0.000000000000002 
0.000000000000000 -0.000000000000000 1.000000000000000 0.000000000000000 
0.000000000000000 -1.000000000000000 -0.000000000000000 -155.650000000000006 
1
1.000000000000000 0.000000000000000 0.000000000000000 0.000000000000000 
0.000000000000000 1.000000000000000 0.000000000000000 0.000000000000000 
0.000000000000000 0.000000000000000 1.000000000000000 63.500000000000000 
2  2 -1 0
1
0.965925826289068 -0.258819045102521 0.000000000000000 0.000000000000000 
0.258819045102521 0.965925826289068 0.000000000000000 0.000000000000000 
0.000000000000000 0.000000000000000 1.000000000000000 0.000000000000000 
1
0.866025403784439 -0.500000000000000 0.000000000000000 0.000000000000000 
0.500000000000000 0.866025403784439 0.000000000000000 0.000000000000000 
0.000000000000000 0.000000000000000 1.000000000000000 0.000000000000000 
1
0.866025403784439 -0.500000000000000 0.000000000000000 0.000000000000000 
0.500000000000000 0.866025403784439 0.000000000000000 0.000000000000000 
0.000000000000000 0.000000000000000 1.000000000000000 0.000000000000000 
1
0.866025403784439 -0.500000000000000 0.000000000000000 0.000000000000000 
0.500000000000000 0.866025403784439 0.000000000000000 0.000000000000000 
0.000000000000000 0.000000000000000 1.000000000000000 0.000000000000000 
1
0.866025403784439 -0.500000000000000 0.000000000000000 0.000000000000000 
0.500000000000000 0.866025403784439 0.000000000000000 0.000000000000000 
0.000000000000000 0.000000000000000 1.000000000000000 0.000000000000000 
1
0.866025403784439 -0.500000000000000 0.000000000000000 0.000000000000000 
0.500000000000000 0.866025403784439 0.000000000000000 0.000000000000000 
0.000000000000000 0.000000000000000 1.000000000000000 0.000000000000000 
1
0.866025403784439 -0.500000000000000 0.000000000000000 0.000000000000000 
0.500000000000000 0.866025403784439 0.000000000000000 0.000000000000000 
0.000000000000000 0.000000000000000 1.000000000000000 0.000000000000000 
1
0.866025403784439 -0.500000000000000 0.000000000000000 0.000000000000000 
0.500000000000000 0.866025403784439 0.000000000000000 0.000000000000000 
0.000000000000000 0.000000000000000 1.000000000000000 0.000000000000000 
2  4 1 5 1 6 1 7 1 8 1 9 1 10 1 11 1 2 1 0
2  11 -1 10 -1 9 -1 8 -1 7 -1 6 -1 5 -1 4 -1 0
2  2 -1 11 -1 10 -1 9 -1 8 -1 7 -1 6 -1 5 -1 4 -1 0
1
0.866025403784439 -0.500000000000000 0.000000000000000 0.000000000000000 
0.500000000000000 0.866025403784439 0.000000000000000 0.000000000000000 
0.000000000000000 0.000000000000000 1.000000000000000 0.000000000000000 
2  4 1 5 1 6 1 7 1 8 1 9 1 10 1 11 1 15 1 2 1 0
2  15 -1 11 -1 10 -1 9 -1 8 -1 7 -1 6 -1 5 -1 4 -1 0
2  2 -1 15 -1 11 -1 10 -1 9 -1 8 -1 7 -1 6 -1 5 -1 4 -1 0
2  4 1 5 1 6 1 7 1 8 1 9 1 10 1 2 1 0
2  10 -1 9 -1 8 -1 7 -1 6 -1 5 -1 4 -1 0
2  2 -1 10 -1 9 -1 8 -1 7 -1 6 -1 5 -1 4 -1 0
1
0.866025403784439 -0.500000000000000 0.000000000000000 0.000000000000000 
0.500000000000000 0.866025403784439 0.000000000000000 0.000000000000000 
0.000000000000000 0.000000000000000 1.000000000000000 0.000000000000000 
2  4 1 5 1 6 1 7 1 8 1 9 1 10 1 11 1 15 1 22 1 2 1 0
2  22 -1 15 -1 11 -1 10 -1 9 -1 8 -1 7 -1 6 -1 5 -1 4 -1 0
2  2 -1 22 -1 15 -1 11 -1 10 -1 9 -1 8 -1 7 -1 6 -1 5 -1 4 -1 0
1
0.866025403784439 -0.500000000000000 0.000000000000000 0.000000000000000 
0.500000000000000 0.866025403784439 0.000000000000000 0.000000000000000 
0.000000000000000 0.000000000000000 1.000000000000000 0.000000000000000 
2  4 1 5 1 6 1 7 1 8 1 9 1 10 1 11 1 15 1 22 1 26 1 2 1 0
2  26 -1 22 -1 15 -1 11 -1 10 -1 9 -1 8 -1 7 -1 6 -1 5 -1 4 -1 0
2  2 -1 26 -1 22 -1 15 -1 11 -1 10 -1 9 -1 8 -1 7 -1 6 -1 5 -1 4 -1 0
1
0.866025403784439 -0.500000000000000 0.000000000000000 0.000000000000000 
0.500000000000000 0.866025403784439 0.000000000000000 0.000000000000000 
0.000000000000000 0.000000000000000 1.000000000000000 0.000000000000000 
2  4 1 5 1 6 1 7 1 8 1 9 1 10 1 11 1 15 1 22 1 26 1 30 1 2 1 0
2  30 -1 26 -1 22 -1 15 -1 11 -1 10 -1 9 -1 8 -1 7 -1 6 -1 5 -1 4 -1 0
2  2 -1 30 -1 26 -1 22 -1 15 -1 11 -1 10 -1 9 -1 8 -1 7 -1 6 -1 5 -1 4 -1 0
2  4 1 5 1 6 1 7 1 8 1 9 1 2 1 0
2  9 -1 8 -1 7 -1 6 -1 5 -1 4 -1 0
2  2 -1 9 -1 8 -1 7 -1 6 -1 5 -1 4 -1 0
2  4 1 5 1 6 1 7 1 8 1 2 1 0
2  8 -1 7 -1 6 -1 5 -1 4 -1 0
2  2 -1 8 -1 7 -1 6 -1 5 -1 4 -1 0
2  4 1 5 1 6 1 7 1 2 1 0
2  7 -1 6 -1 5 -1 4 -1 0
2  2 -1 7 -1 6 -1 5 -1 4 -1 0
2  4 1 2 1 0
2  4 -1 0
2  2 -1 4 -1 0
2  4 1 5 1 6 1 2 1 0
2  6 -1 5 -1 4 -1 0
2  2 -1 6 -1 5 -1 4 -1 0
2  4 1 5 1 2 1 0
2  5 -1 4 -1 0
2  2 -1 5 -1 4 -1 0
2  4 1 5 1 6 1 7 1 8 1 9 1 10 1 11 1 0
2  4 1 5 1 6 1 7 1 8 1 9 1 10 1 11 1 15 1 0
2  4 1 5 1 6 1 7 1 8 1 9 1 10 1 0
2  4 1 5 1 6 1 7 1 8 1 9 1 10 1 11 1 15 1 22 1 0
2  4 1 5 1 6 1 7 1 8 1 9 1 10 1 11 1 15 1 22 1 26 1 0
2  4 1 5 1 6 1 7 1 8 1 9 1 10 1 11 1 15 1 22 1 26 1 30 1 0
2  4 1 5 1 6 1 7 1 8 1 9 1 0
2  4 1 5 1 6 1 7 1 8 1 0
2  4 1 5 1 6 1 7 1 0
2  4 1 5 1 6 1 0
2  4 1 5 1 0
Curve2ds 81
1 6.28318530717958623 -0.00000000000000000 0.00000000000000000 1.00000000000000000 
1 0.00000000000000000 -0.00000000000000000 0.00000000000000000 1.00000000000000000 
1 0.00000000000000000 3.60731826066395111 1.00000000000000000 0.00000000000000000 
1 0.00000000000000000 7.83080791350000016 1.00000000000000000 0.00000000000000000 
1 0.00000000000000000 88.23766896853067010 1.00000000000000000 0.00000000000000000 
2 0.00000000000000000 0.00000000000000000 1.00000000000000000 0.00000000000000000 -0.00000000000000000 1.00000000000000000 109.59999999999999432
1 0.00000000000000000 142.34000000000000341 1.00000000000000000 0.00000000000000000 
8 3.60731826066395111 4.71238898038468967
1 6.28318530717958623 0.00000000000000000 0.00000000000000000 1.00000000000000000 
8 3.60731826066395111 4.71238898038468967
1 0.00000000000000000 0.00000000000000000 0.00000000000000000 1.00000000000000000 
1 0.00000000000000000 4.71238898038468967 1.00000000000000000 0.00000000000000000 
2 0.00000000000001788 -0.00000000000000233 1.00000000000000000 -0.00000000000000006 0.00000000000000006 1.00000000000000000 157.05580791349999004
1 6.28318530717958623 -0.00000000000000000 0.00000000000000000 1.00000000000000000 
1 0.00000000000000000 -0.00000000000000000 0.00000000000000000 1.00000000000000000 
1 0.00000000000000000 162.05000000000001137 1.00000000000000000 0.00000000000000000 
2 0.00000000000000000 0.00000000000000000 1.00000000000000000 0.00000000000000000 -0.00000000000000000 1.00000000000000000 109.59999999999999432
1 0.00000000000000000 0.00000000000000000 1.00000000000000000 0.00000000000000000 
1 0.00000000000000000 -63.50000000000000000 1.00000000000000000 0.00000000000000000 
1 0.00000000000000000 0.00000000000000000 1.00000000000000000 0.00000000000000000 
1 0.00000000000000000 -63.50000000000000000 1.00000000000000000 0.00000000000000000 
1 0.00000000000000000 0.00000000000000000 1.00000000000000000 0.00000000000000000 
1 0.00000000000000000 -63.50000000000000000 1.00000000000000000 0.00000000000000000 
1 0.00000000000000000 0.00000000000000000 1.00000000000000000 0.00000000000000000 
1 0.00000000000000000 -63.50000000000000000 1.00000000000000000 0.00000000000000000 
1 0.00000000000000000 0.00000000000000000 1.00000000000000000 0.00000000000000000 
1 0.00000000000000000 -63.50000000000000000 1.00000000000000000 0.00000000000000000 
1 0.00000000000000000 0.00000000000000000 1.00000000000000000 0.00000000000000000 
1 0.00000000000000000 -63.50000000000000000 1.00000000000000000 0.00000000000000000 
1 0.00000000000000000 0.00000000000000000 1.00000000000000000 0.00000000000000000 
1 0.00000000000000000 -63.50000000000000000 1.00000000000000000 0.00000000000000000 
1 0.00000000000000000 0.00000000000000000 1.00000000000000000 0.00000000000000000 
1 0.00000000000000000 -63.50000000000000000 1.00000000000000000 0.00000000000000000 
1 0.00000000000000000 0.00000000000000000 1.00000000000000000 0.00000000000000000 
1 0.00000000000000000 -63.50000000000000000 1.00000000000000000 0.00000000000000000 
1 0.00000000000000000 0.00000000000000000 1.00000000000000000 0.00000000000000000 
1 0.00000000000000000 -63.50000000000000000 1.00000000000000000 0.00000000000000000 
1 0.00000000000000000 0.00000000000000000 1.00000000000000000 0.00000000000000000 
1 0.00000000000000000 -63.50000000000000000 1.00000000000000000 0.00000000000000000 
1 0.00000000000000000 0.00000000000000000 1.00000000000000000 0.00000000000000000 
1 0.00000000000000000 -63.50000000000000000 1.00000000000000000 0.00000000000000000 
1 0.00000000000000000 0.00000000000000000 1.00000000000000000 0.00000000000000000 
1 0.00000000000000000 -63.50000000000000000 1.00000000000000000 0.00000000000000000 
2 0.00000000000000000 0.00000000000000000 1.00000000000000000 0.00000000000000000 -0.00000000000000000 1.00000000000000000 96.83499999999999375
1 0.00000000000000000 162.05000000000001137 1.00000000000000000 0.00000000000000000 
1 0.00000000000000000 0.00000000000000000 0.00000000000000000 -1.00000000000000000 
1 6.28318530717958623 0.00000000000000000 0.00000000000000000 -1.00000000000000000 
1 0.00000000000000000 0.00000000000000000 0.00000000000000000 -1.00000000000000000 
1 6.28318530717958623 0.00000000000000000 0.00000000000000000 -1.00000000000000000 
1 0.00000000000000000 0.00000000000000000 0.00000000000000000 -1.00000000000000000 
1 6.28318530717958623 0.00000000000000000 0.00000000000000000 -1.00000000000000000 
1 0.00000000000000000 0.00000000000000000 0.00000000000000000 -1.00000000000000000 
1 6.28318530717958623 0.00000000000000000 0.00000000000000000 -1.00000000000000000 
1 0.00000000000000000 0.00000000000000000 0.00000000000000000 -1.00000000000000000 
1 6.28318530717958623 0.00000000000000000 0.00000000000000000 -1.00000000000000000 
1 0.00000000000000000 0.00000000000000000 0.00000000000000000 -1.00000000000000000 
1 6.28318530717958623 0.00000000000000000 0.00000000000000000 -1.00000000000000000 
1 0.00000000000000000 0.00000000000000000 0.00000000000000000 -1.00000000000000000 
1 6.28318530717958623 0.00000000000000000 0.00000000000000000 -1.00000000000000000 
1 0.00000000000000000 0.00000000000000000 0.00000000000000000 -1.00000000000000000 
1 6.28318530717958623 0.00000000000000000 0.00000000000000000 -1.00000000000000000 
1 0.00000000000000000 0.00000000000000000 0.00000000000000000 -1.00000000000000000 
1 6.28318530717958623 0.00000000000000000 0.00000000000000000 -1.00000000000000000 
1 0.00000000000000000 0.00000000000000000 0.00000000000000000 -1.00000000000000000 
1 6.28318530717958623 0.00000000000000000 0.00000000000000000 -1.00000000000000000 
1 0.00000000000000000 0.00000000000000000 0.00000000000000000 -1.00000000000000000 
1 6.28318530717958623 0.00000000000000000 0.00000000000000000 -1.00000000000000000 
1 0.00000000000000000 0.00000000000000000 0.00000000000000000 -1.00000000000000000 
1 6.28318530717958623 0.00000000000000000 0.00000000000000000 -1.00000000000000000 
1 0.00000000000000000 0.00000000000000000 0.00000000000000000 -1.00000000000000000 
1 6.28318530717958623 0.00000000000000000 0.00000000000000000 -1.00000000000000000 
2 0.00000000000000000 0.00000000000000000 1.00000000000000000 0.00000000000000000 -0.00000000000000000 1.00000000000000000 96.83499999999999375
1 9.42477796076937935 -6.40000000000000036 -1.00000000000000000 0.00000000000000000 
1 6.28318530717958623 0.00000000000000000 0.00000000000000000 1.00000000000000000 
1 0.00000000000000000 0.00000000000000000 0.00000000000000000 1.00000000000000000 
2 0.00000000000000000 0.00000000000000000 1.00000000000000000 0.00000000000000000 -0.00000000000000000 1.00000000000000000 96.83499999999999375
1 3.14159265358979312 -6.40000000000000036 -1.00000000000000000 0.00000000000000000 
1 0.00000000000000000 0.00000000000000000 1.00000000000000000 0.00000000000000000 
2 0.00000000000000000 0.00000000000000000 1.00000000000000000 0.00000000000000000 -0.00000000000000000 1.00000000000000000 134.87500000000000000
1 0.00000000000000000 6.40000000000000036 1.00000000000000000 0.00000000000000000 
2 0.00000000000000000 0.00000000000000000 1.00000000000000000 0.00000000000000000 -0.00000000000000000 1.00000000000000000 134.87500000000000000
1 6.28318530717958623 -0.00000000000000000 0.00000000000000000 1.00000000000000000 
1 0.00000000000000000 -0.00000000000000000 0.00000000000000000 1.00000000000000000 
Curves 28
1 149.22499999999999432 -0.00000000000003655 63.50000000000000000 -0.44907124659120334 0.00000000000000011 0.89349595157729889 
2 0.00000000000000000 0.00000000000000000 70.49679516829172599 0.00000000000000000 0.00000000000000000 1.00000000000000000 1.00000000000000000 -0.00000000000000006 0.00000000000000000 0.00000000000000006 1.00000000000000000 -0.00000000000000000 145.70840932846829219
2 0.00000000000000000 0.00000000000000000 142.34000000000000341 0.00000000000000000 0.00000000000000000 1.00000000000000000 1.00000000000000000 0.00000000000000000 -0.00000000000000000 -0.00000000000000000 1.00000000000000000 0.00000000000000000 109.59999999999999432
2 157.05580791349999004 -0.00000000000000962 76.20000000000000284 -0.00000000000000006 -1.00000000000000000 0.00000000000000000 1.00000000000000000 -0.00000000000000006 0.00000000000000000 0.00000000000000000 0.00000000000000000 1.00000000000000000 12.69999999999999929
2 0.00000000000000000 0.00000000000000000 63.50000000000000000 0.00000000000000000 0.00000000000000000 1.00000000000000000 1.00000000000000000 -0.00000000000000006 0.00000000000000000 0.00000000000000006 1.00000000000000000 -0.00000000000000000 157.05580791349999004
1 109.59999999999999432 -0.00000000000002684 0.00000000000000000 0.00000000000000000 0.00000000000000000 1.00000000000000000 
2 0.00000000000000000 0.00000000000000000 162.05000000000001137 0.00000000000000000 0.00000000000000000 1.00000000000000000 1.00000000000000000 0.00000000000000000 -0.00000000000000000 -0.00000000000000000 1.00000000000000000 0.00000000000000000 109.59999999999999432
2 0.00000000000000000 0.00000000000000000 0.00000000000000000 0.00000000000000000 0.00000000000000000 1.00000000000000000 1.00000000000000000 0.00000000000000000 -0.00000000000000000 -0.00000000000000000 1.00000000000000000 0.00000000000000000 234.94999999999998863
2 196.84999999999999432 0.00000000000000000 0.00000000000000000 0.00000000000000000 0.00000000000000000 1.00000000000000000 1.00000000000000000 0.00000000000000000 -0.00000000000000000 -0.00000000000000000 1.00000000000000000 0.00000000000000000 19.05000000000000071
2 0.00000000000000000 0.00000000000000000 162.05000000000001137 0.00000000000000000 0.00000000000000000 1.00000000000000000 1.00000000000000000 0.00000000000000000 -0.00000000000000000 -0.00000000000000000 1.00000000000000000 0.00000000000000000 96.83499999999999375
1 234.94999999999998863 0.00000000000000000 0.00000000000000000 0.00000000000000000 0.00000000000000000 1.00000000000000000 
1 -152.66435405817568949 -152.66435405817551896 0.00000000000000000 0.00000000000000000 0.00000000000000000 1.00000000000000000 
1 -55.87903183763440751 -208.54338589580981989 0.00000000000000000 0.00000000000000000 0.00000000000000000 1.00000000000000000 
1 -208.54338589580987673 -55.87903183763410908 0.00000000000000000 0.00000000000000000 0.00000000000000000 1.00000000000000000 
1 55.87903183763405934 -208.54338589580990515 0.00000000000000000 0.00000000000000000 0.00000000000000000 1.00000000000000000 
1 152.66435405817549054 -152.66435405817577475 0.00000000000000000 0.00000000000000000 0.00000000000000000 1.00000000000000000 
1 208.54338589580981989 -55.87903183763444304 0.00000000000000000 0.00000000000000000 0.00000000000000000 1.00000000000000000 
1 -208.54338589580981989 55.87903183763435067 0.00000000000000000 0.00000000000000000 0.00000000000000000 1.00000000000000000 
1 -152.66435405817554738 152.66435405817566107 0.00000000000000000 0.00000000000000000 0.00000000000000000 1.00000000000000000 
1 -55.87903183763416592 208.54338589580987673 0.00000000000000000 0.00000000000000000 0.00000000000000000 1.00000000000000000 
1 208.54338589580984831 55.87903183763422987 0.00000000000000000 0.00000000000000000 0.00000000000000000 1.00000000000000000 
1 55.87903183763428672 208.54338589580981989 0.00000000000000000 0.00000000000000000 0.00000000000000000 1.00000000000000000 
1 152.66435405817563264 152.66435405817560422 0.00000000000000000 0.00000000000000000 0.00000000000000000 1.00000000000000000 
2 0.00000000000000000 0.00000000000000000 -6.40000000000000036 -0.00000000000000000 -0.00000000000000000 -1.00000000000000000 -1.00000000000000000 0.00000000000000000 0.00000000000000000 0.00000000000000000 1.00000000000000000 -0.00000000000000000 96.83499999999999375
7 0 0  1 2 2  96.83499999999999375 0.00000000000000000 -6.40000000000000036  96.83499999999999375 0.00000000000000000 162.05000000000001137 
 -6.40000000000000036 2 162.05000000000001137 2
2 0.00000000000000000 0.00000000000000000 0.00000000000000000 -0.00000000000000000 -0.00000000000000000 -1.00000000000000000 -1.00000000000000000 0.00000000000000000 0.00000000000000000 0.00000000000000000 1.00000000000000000 -0.00000000000000000 134.87500000000000000
2 0.00000000000000000 0.00000000000000000 -6.40000000000000036 -0.00000000000000000 -0.00000000000000000 -1.00000000000000000 -1.00000000000000000 0.00000000000000000 0.00000000000000000 0.00000000000000000 1.00000000000000000 -0.00000000000000000 134.87500000000000000
1 -134.87500000000000000 -0.00000000000003303 0.00000000000000000 0.00000000000000000 -0.00000000000000000 -1.00000000000000000 
Polygon3D 0
PolygonOnTriangulations 0
Surfaces 23
3 0.00000000000000000 0.00000000000000000 63.50000000000000000 0.00000000000000000 0.00000000000000000 1.00000000000000000 1.00000000000000000 0.00000000000000000 -0.00000000000000000 -0.00000000000000000 1.00000000000000000 0.00000000000000000 149.22499999999999432
-0.46572560707415844
5 0.00000000000000000 0.00000000000000000 76.20000000000000284 0.00000000000000000 0.00000000000000000 1.00000000000000000 1.00000000000000000 -0.00000000000000006 0.00000000000000000 0.00000000000000006 1.00000000000000000 -0.00000000000000000 157.05580791349999004 12.69999999999999929
1 0.00000000000000000 0.00000000000000000 142.34000000000000341 0.00000000000000000 0.00000000000000000 1.00000000000000000 1.00000000000000000 0.00000000000000000 -0.00000000000000000 -0.00000000000000000 1.00000000000000000 0.00000000000000000 
2 0.00000000000000000 0.00000000000000000 0.00000000000000000 0.00000000000000000 0.00000000000000000 1.00000000000000000 1.00000000000000000 0.00000000000000000 -0.00000000000000000 -0.00000000000000000 1.00000000000000000 0.00000000000000000 109.59999999999999432
1 -0.00000000000001788 0.00000000000000233 0.00000000000000000 0.00000000000000000 0.00000000000000000 1.00000000000000000 1.00000000000000000 0.00000000000000000 -0.00000000000000000 -0.00000000000000000 1.00000000000000000 0.00000000000000000 
1 0.00000000000000000 0.00000000000000000 162.05000000000001137 0.00000000000000000 0.00000000000000000 1.00000000000000000 1.00000000000000000 0.00000000000000000 -0.00000000000000000 -0.00000000000000000 1.00000000000000000 0.00000000000000000 
2 0.00000000000000000 0.00000000000000000 0.00000000000000000 -0.00000000000000000 -0.00000000000000000 -1.00000000000000000 1.00000000000000000 0.00000000000000000 -0.00000000000000000 -0.00000000000000000 1.00000000000000000 0.00000000000000000 234.94999999999998863
2 -139.19396987657194131 -139.19396987657177078 0.00000000000000000 -0.00000000000000000 -0.00000000000000000 -1.00000000000000000 -0.70710678118654802 -0.70710678118654713 0.00000000000000000 0.70710678118654713 -0.70710678118654802 0.00000000000000000 19.05000000000000071
2 -50.94852902843137343 -190.14249890500306606 0.00000000000000000 -0.00000000000000000 -0.00000000000000000 -1.00000000000000000 -0.25881904510252157 -0.96592582628906820 0.00000000000000000 0.96592582628906820 -0.25881904510252157 0.00000000000000000 19.05000000000000071
2 -190.14249890500312290 -50.94852902843109632 0.00000000000000000 -0.00000000000000000 -0.00000000000000000 -1.00000000000000000 -0.96592582628906842 -0.25881904510252018 0.00000000000000000 0.25881904510252018 -0.96592582628906842 0.00000000000000000 19.05000000000000071
2 50.94852902843105369 -190.14249890500312290 0.00000000000000000 0.00000000000000000 -0.00000000000000000 -1.00000000000000000 0.25881904510251996 -0.96592582628906853 0.00000000000000000 0.96592582628906853 0.25881904510251996 0.00000000000000000 19.05000000000000071
2 139.19396987657174236 -139.19396987657202658 0.00000000000000000 0.00000000000000000 -0.00000000000000000 -1.00000000000000000 0.70710678118654691 -0.70710678118654824 0.00000000000000000 0.70710678118654824 0.70710678118654691 0.00000000000000000 19.05000000000000071
2 190.14249890500303763 -50.94852902843140185 0.00000000000000000 0.00000000000000000 -0.00000000000000000 -1.00000000000000000 0.96592582628906809 -0.25881904510252174 0.00000000000000000 0.25881904510252174 0.96592582628906809 0.00000000000000000 19.05000000000000071
2 -190.14249890500306606 50.94852902843131659 0.00000000000000000 -0.00000000000000000 -0.00000000000000000 -1.00000000000000000 -0.96592582628906820 0.25881904510252129 0.00000000000000000 -0.25881904510252129 -0.96592582628906820 0.00000000000000000 19.05000000000000071
2 -139.19396987657182763 139.19396987657194131 0.00000000000000000 -0.00000000000000000 -0.00000000000000000 -1.00000000000000000 -0.70710678118654724 0.70710678118654779 0.00000000000000000 -0.70710678118654779 -0.70710678118654724 0.00000000000000000 19.05000000000000071
2 -50.94852902843115317 190.14249890500312290 0.00000000000000000 -0.00000000000000000 -0.00000000000000000 -1.00000000000000000 -0.25881904510252046 0.96592582628906842 0.00000000000000000 -0.96592582628906842 -0.25881904510252046 0.00000000000000000 19.05000000000000071
2 190.14249890500309448 50.94852902843120290 0.00000000000000000 -0.00000000000000000 0.00000000000000000 -1.00000000000000000 0.96592582628906831 0.25881904510252074 0.00000000000000000 -0.25881904510252074 0.96592582628906831 0.00000000000000000 19.05000000000000071
2 50.94852902843125975 190.14249890500306606 0.00000000000000000 -0.00000000000000000 0.00000000000000000 -1.00000000000000000 0.25881904510252102 0.96592582628906820 0.00000000000000000 -0.96592582628906820 0.25881904510252102 0.00000000000000000 19.05000000000000071
2 139.19396987657188447 139.19396987657185605 0.00000000000000000 -0.00000000000000000 0.00000000000000000 -1.00000000000000000 0.70710678118654757 0.70710678118654746 0.00000000000000000 -0.70710678118654746 0.70710678118654757 0.00000000000000000 19.05000000000000071
10 0.00000000000000000 6.28318530717958623 -6.40000000000000036 162.05000000000001137
2 0.00000000000000000 0.00000000000000000 0.00000000000000000 0.00000000000000000 0.00000000000000000 1.00000000000000000 1.00000000000000000 0.00000000000000000 -0.00000000000000000 -0.00000000000000000 1.00000000000000000 0.00000000000000000 96.83499999999999375
1 0.00000000000000000 0.00000000000000000 -6.40000000000000036 -0.00000000000000000 -0.00000000000000000 -1.00000000000000000 -1.00000000000000000 0.00000000000000000 0.00000000000000000 0.00000000000000000 1.00000000000000000 -0.00000000000000000 
2 0.00000000000000000 0.00000000000000000 0.00000000000000000 -0.00000000000000000 -0.00000000000000000 -1.00000000000000000 -1.00000000000000000 0.00000000000000000 0.00000000000000000 0.00000000000000000 1.00000000000000000 -0.00000000000000000 134.87500000000000000
1 0.00000000000000000 0.00000000000000000 0.00000000000000000 -0.00000000000000000 -0.00000000000000000 -1.00000000000000000 -1.00000000000000000 0.00000000000000000 0.00000000000000000 0.00000000000000000 1.00000000000000000 -0.00000000000000000 
Triangulations 0

TShapes 137
Ve
0.000000100000000
145.708409328468292 -0.000000000000009 70.496795168291726
0 0

0101101
*
Ve
0.000000100000000
109.599999999999994 -0.000000000000027 142.340000000000003
0 0

0101101
*
Ed
 0.000000100000000 1 1 0
1  1 0 7.830807913500000 88.237668968530670
3  1 2CN 1 0 7.830807913500000 88.237668968530670
0

0101000
+137 0 -136 0 *
Ed
 0.000000100000000 1 1 0
1  2 0 0.000000000000000 6.283185307179586
2  3 2 0 0.000000000000000 6.283185307179586
2  4 1 0 0.000000000000000 6.283185307179586
4 G1 2 0 1 0
0

0101000
+137 0 -137 0 *
Ed
 0.000000100000000 1 1 0
1  3 0 0.000000000000000 6.283185307179586
2  5 1 0 0.000000000000000 6.283185307179586
2  6 3 0 0.000000000000000 6.283185307179586
2  7 4 0 0.000000000000000 6.283185307179586
0

0101000
+136 0 -136 0 *
Wi

0101100
+135 0 +134 0 -133 0 -135 0 *
Fa
0  0.000000100000000 1 0

0101000
+132 0 *
Ve
0.000000100000000
157.055807913499990 -0.000000000000010 63.500000000000000
0 0

0101101
*
Ed
 0.000000100000000 1 1 0
1  4 0 3.607318260663951 4.712388980384690
3  8 9CN 2 0 3.607318260663951 4.712388980384690
0

0101000
+137 0 -130 0 *
Ed
 0.000000100000000 1 1 0
1  5 0 0.000000000000000 6.283185307179586
2  10 2 0 0.000000000000000 6.283185307179586
2  11 5 2 0.000000000000000 6.283185307179586
4 G1 2 0 5 2
0

0101000
+130 0 -130 0 *
Wi

0101100
-129 0 +134 0 -128 0 +129 0 *
Fa
0  0.000000000000000 2 0

0101000
+127 0 *
Ve
0.000000100000000
109.599999999999994 -0.000000000000027 162.050000000000011
0 0

0101101
*
Ed
 0.000000100000000 1 1 0
1  6 0 142.340000000000003 162.050000000000011
3  12 13CN 4 0 142.340000000000003 162.050000000000011
0

0101000
+136 0 -125 0 *
Ed
 0.000000100000000 1 1 0
1  7 0 0.000000000000000 6.283185307179586
2  14 4 0 0.000000000000000 6.283185307179586
2  15 6 0 0.000000000000000 6.283185307179586
0

0101000
+125 0 -125 0 *
Wi

0101100
+133 0 -124 0 -123 0 +124 0 *
Fa
0  0.000000100000000 4 0

0101000
+122 0 *
Wi

0101100
-128 0 *
Ve
0.000000100000000
234.949999999999989 0.000000000000000 0.000000000000000
0 0

0101101
*
Ed
 0.000000100000000 1 1 0
1  8 0 0.000000000000000 6.283185307179586
2  16 7 0 0.000000000000000 6.283185307179586
2  17 7 3 0.000000000000000 6.283185307179586
0

0101100
+119 0 -119 0 *
Wi

0101100
+118 2 *
Ve
0.000000100000000
-152.664354058175689 -152.664354058175519 0.000000000000000
0 0

0101101
*
Ed
 0.000000100000000 1 1 0
1  9 0 0.000000000000000 6.283185307179586
2  18 8 13 0.000000000000000 6.283185307179586
2  19 8 14 0.000000000000000 6.283185307179586
0

0101000
+116 13 -116 13 *
Wi

0101100
-115 12 *
Ve
0.000000100000000
-55.879031837634408 -208.543385895809820 0.000000000000000
0 0

0101101
*
Ed
 0.000000100000000 1 1 0
1  9 0 0.000000000000000 6.283185307179586
2  20 9 17 0.000000000000000 6.283185307179586
2  21 9 18 0.000000000000000 6.283185307179586
0

0101000
+113 17 -113 17 *
Wi

0101100
-112 16 *
Ve
0.000000100000000
-208.543385895809877 -55.879031837634109 0.000000000000000
0 0

0101101
*
Ed
 0.000000100000000 1 1 0
1  9 0 0.000000000000000 6.283185307179586
2  22 10 20 0.000000000000000 6.283185307179586
2  23 10 21 0.000000000000000 6.283185307179586
0

0101000
+110 20 -110 20 *
Wi

0101100
-109 19 *
Ve
0.000000100000000
55.879031837634059 -208.543385895809905 0.000000000000000
0 0

0101101
*
Ed
 0.000000100000000 1 1 0
1  9 0 0.000000000000000 6.283185307179586
2  24 11 24 0.000000000000000 6.283185307179586
2  25 11 25 0.000000000000000 6.283185307179586
0

0101000
+107 24 -107 24 *
Wi

0101100
-106 23 *
Ve
0.000000100000000
152.664354058175491 -152.664354058175775 0.000000000000000
0 0

0101101
*
Ed
 0.000000100000000 1 1 0
1  9 0 0.000000000000000 6.283185307179586
2  26 12 28 0.000000000000000 6.283185307179586
2  27 12 29 0.000000000000000 6.283185307179586
0

0101000
+104 28 -104 28 *
Wi

0101100
-103 27 *
Ve
0.000000100000000
208.543385895809820 -55.879031837634443 0.000000000000000
0 0

0101101
*
Ed
 0.000000100000000 1 1 0
1  9 0 0.000000000000000 6.283185307179586
2  28 13 32 0.000000000000000 6.283185307179586
2  29 13 33 0.000000000000000 6.283185307179586
0

0101000
+101 32 -101 32 *
Wi

0101100
-100 31 *
Ve
0.000000100000000
-208.543385895809820 55.879031837634351 0.000000000000000
0 0

0101101
*
Ed
 0.000000100000000 1 1 0
1  9 0 0.000000000000000 6.283185307179586
2  30 14 35 0.000000000000000 6.283185307179586
2  31 14 36 0.000000000000000 6.283185307179586
0

0101000
+98 35 -98 35 *
Wi

0101100
-97 34 *
Ve
0.000000100000000
-152.664354058175547 152.664354058175661 0.000000000000000
0 0

0101101
*
Ed
 0.000000100000000 1 1 0
1  9 0 0.000000000000000 6.283185307179586
2  32 15 38 0.000000000000000 6.283185307179586
2  33 15 39 0.000000000000000 6.283185307179586
0

0101000
+95 38 -95 38 *
Wi

0101100
-94 37 *
Ve
0.000000100000000
-55.879031837634166 208.543385895809877 0.000000000000000
0 0

0101101
*
Ed
 0.000000100000000 1 1 0
1  9 0 0.000000000000000 6.283185307179586
2  34 16 41 0.000000000000000 6.283185307179586
2  35 16 42 0.000000000000000 6.283185307179586
0

0101000
+92 41 -92 41 *
Wi

0101100
-91 40 *
Ve
0.000000100000000
208.543385895809848 55.879031837634230 0.000000000000000
0 0

0101101
*
Ed
 0.000000100000000 1 1 0
1  9 0 0.000000000000000 6.283185307179586
2  36 17 44 0.000000000000000 6.283185307179586
2  37 17 45 0.000000000000000 6.283185307179586
0

0101000
+89 44 -89 44 *
Wi

0101100
-88 43 *
Ve
0.000000100000000
55.879031837634287 208.543385895809820 0.000000000000000
0 0

0101101
*
Ed
 0.000000100000000 1 1 0
1  9 0 0.000000000000000 6.283185307179586
2  38 18 47 0.000000000000000 6.283185307179586
2  39 18 48 0.000000000000000 6.283185307179586
0

0101000
+86 47 -86 47 *
Wi

0101100
-85 46 *
Ve
0.000000100000000
152.664354058175633 152.664354058175604 0.000000000000000
0 0

0101101
*
Ed
 0.000000100000000 1 1 0
1  9 0 0.000000000000000 6.283185307179586
2  40 19 50 0.000000000000000 6.283185307179586
2  41 19 51 0.000000000000000 6.283185307179586
0

0101000
+83 50 -83 50 *
Wi

0101100
-82 49 *
Fa
0  0.000000100000000 5 2

0101000
+120 0 +117 0 +114 0 +111 0 +108 0 +105 0 +102 0 +99 0 +96 0 +93 0 
+90 0 +87 0 +84 0 +81 0 *
Wi

0101100
+123 0 *
Ve
0.000010000000000
96.834999999999994 -0.000000000000024 162.050000000000011
0 0

0101101
*
Ed
 0.000000100000000 1 1 0
1  10 0 0.000000000000000 6.283185307179586
2  42 6 0 0.000000000000000 6.283185307179586
2  43 20 0 0.000000000000000 6.283185307179586
4 C0 6 0 20 0
0

0101000
+78 0 -78 0 *
Wi

0101100
-77 0 *
Fa
0  0.000000100000000 6 0

0101000
+79 0 +76 0 *
Ed
 0.000000100000000 1 1 0
1  11 0 0.000000000000000 63.500000000000000
3  44 45CN 7 0 0.000000000000000 63.500000000000000
0

0101000
+119 0 -119 2 *
Wi

0101100
+74 0 -74 0 -118 0 +118 2 *
Fa
0  0.000000100000000 7 0

0101000
+73 0 *
Ed
 0.000000100000000 1 1 0
1  12 0 0.000000000000000 63.500000000000000
3  46 47CN 8 0 0.000000000000000 63.500000000000000
0

0101000
+116 0 -116 2 *
Wi

0101100
+71 0 -71 0 -115 52 +115 12 *
Fa
0  0.000000100000000 8 0

0101000
+70 0 *
Ed
 0.000000100000000 1 1 0
1  13 0 0.000000000000000 63.500000000000000
3  48 49CN 9 0 0.000000000000000 63.500000000000000
0

0101000
+113 0 -113 2 *
Wi

0101100
+68 0 -68 0 -112 53 +112 16 *
Fa
0  0.000000100000000 9 0

0101000
+67 0 *
Ed
 0.000000100000000 1 1 0
1  14 0 0.000000000000000 63.500000000000000
3  50 51CN 10 0 0.000000000000000 63.500000000000000
0

0101000
+110 0 -110 2 *
Wi

0101100
+65 0 -65 0 -109 54 +109 19 *
Fa
0  0.000000100000000 10 0

0101000
+64 0 *
Ed
 0.000000100000000 1 1 0
1  15 0 0.000000000000000 63.500000000000000
3  52 53CN 11 0 0.000000000000000 63.500000000000000
0

0101000
+107 0 -107 2 *
Wi

0101100
+62 0 -62 0 -106 55 +106 23 *
Fa
0  0.000000100000000 11 0

0101000
+61 0 *
Ed
 0.000000100000000 1 1 0
1  16 0 0.000000000000000 63.500000000000000
3  54 55CN 12 0 0.000000000000000 63.500000000000000
0

0101000
+104 0 -104 2 *
Wi

0101100
+59 0 -59 0 -103 56 +103 27 *
Fa
0  0.000000100000000 12 0

0101000
+58 0 *
Ed
 0.000000100000000 1 1 0
1  17 0 0.000000000000000 63.500000000000000
3  56 57CN 13 0 0.000000000000000 63.500000000000000
0

0101000
+101 0 -101 2 *
Wi

0101100
+56 0 -56 0 -100 57 +100 31 *
Fa
0  0.000000100000000 13 0

0101000
+55 0 *
Ed
 0.000000100000000 1 1 0
1  18 0 0.000000000000000 63.500000000000000
3  58 59CN 14 0 0.000000000000000 63.500000000000000
0

0101000
+98 0 -98 2 *
Wi

0101100
+53 0 -53 0 -97 58 +97 34 *
Fa
0  0.000000100000000 14 0

0101000
+52 0 *
Ed
 0.000000100000000 1 1 0
1  19 0 0.000000000000000 63.500000000000000
3  60 61CN 15 0 0.000000000000000 63.500000000000000
0

0101000
+95 0 -95 2 *
Wi

0101100
+50 0 -50 0 -94 59 +94 37 *
Fa
0  0.000000100000000 15 0

0101000
+49 0 *
Ed
 0.000000100000000 1 1 0
1  20 0 0.000000000000000 63.500000000000000
3  62 63CN 16 0 0.000000000000000 63.500000000000000
0

0101000
+92 0 -92 2 *
Wi

0101100
+47 0 -47 0 -91 60 +91 40 *
Fa
0  0.000000100000000 16 0

0101000
+46 0 *
Ed
 0.000000100000000 1 1 0
1  21 0 0.000000000000000 63.500000000000000
3  64 65CN 17 0 0.000000000000000 63.500000000000000
0

0101000
+89 0 -89 2 *
Wi

0101100
+44 0 -44 0 -88 4 +88 43 *
Fa
0  0.000000100000000 17 0

0101000
+43 0 *
Ed
 0.000000100000000 1 1 0
1  22 0 0.000000000000000 63.500000000000000
3  66 67CN 18 0 0.000000000000000 63.500000000000000
0

0101000
+86 0 -86 2 *
Wi

0101100
+41 0 -41 0 -85 61 +85 46 *
Fa
0  0.000000100000000 18 0

0101000
+40 0 *
Ed
 0.000000100000000 1 1 0
1  23 0 0.000000000000000 63.500000000000000
3  68 69CN 19 0 0.000000000000000 63.500000000000000
0

0101000
+83 0 -83 2 *
Wi

0101100
+38 0 -38 0 -82 62 +82 49 *
Fa
0  0.000000100000000 19 0

0101000
+37 0 *
Ve
0.000010000000000
96.834999999999994 -0.000000000000024 -6.400000000000000
0 0

0101101
*
Ve
0.000000100000000
-96.834999999999994 -0.000000000000024 -6.400000000000000
0 0

0101101
*
Ed
 0.000000100000000 1 1 0
1  24 0 3.141592653589793 6.283185307179586
2  70 21 0 3.141592653589793 6.283185307179586
2  71 20 0 3.141592653589793 6.283185307179586
4 C0 21 0 20 0
0

0101000
+35 0 -34 0 *
Ed
 0.000010000000000 1 1 0
1  25 0 -6.400000000000000 162.050000000000011
3  72 73C0 20 0 -6.400000000000000 162.050000000000011
0

0101000
+35 0 -78 0 *
Ed
 0.000000100000000 1 1 0
1  24 0 0.000000000000000 3.141592653589793
2  74 21 0 0.000000000000000 3.141592653589793
2  75 20 0 0.000000000000000 3.141592653589793
4 C0 21 0 20 0
0

0101000
+34 0 -35 0 *
Wi

0101100
-33 0 +32 0 -77 0 -32 0 -31 0 *
Fa
0  0.000000100000000 20 0

0101000
+30 0 *
Wi

0101100
+118 0 *
Wi

0101100
-115 52 *
Wi

0101100
-112 53 *
Wi

0101100
-109 54 *
Wi

0101100
-106 55 *
Wi

0101100
-103 56 *
Wi

0101100
-100 57 *
Wi

0101100
-97 58 *
Wi

0101100
-94 59 *
Wi

0101100
-91 60 *
Ve
0.000000100000000
-134.875000000000000 -0.000000000000033 0.000000000000000
0 0

0101101
*
Ed
 0.000000100000000 1 1 0
1  26 0 0.000000000000000 6.283185307179586
2  76 22 0 0.000000000000000 6.283185307179586
2  77 23 0 0.000000000000000 6.283185307179586
0

0101000
+18 0 -18 0 *
Wi

0101100
+17 0 *
Wi

0101100
-88 4 *
Wi

0101100
-85 61 *
Wi

0101100
-82 62 *
Fa
0  0.000000100000000 5 0

0101000
+28 0 +27 0 +26 0 +25 0 +24 0 +23 0 +22 0 +21 0 +20 0 +19 0 
+16 0 +15 0 +14 0 +13 0 *
Ve
0.000000100000000
-134.875000000000000 -0.000000000000033 -6.400000000000000
0 0

0101101
*
Ed
 0.000000100000000 1 1 0
1  27 0 0.000000000000000 6.283185307179586
2  78 22 0 0.000000000000000 6.283185307179586
2  79 21 0 0.000000000000000 6.283185307179586
0

0101000
+11 0 -11 0 *
Wi

0101100
+10 0 *
Wi

0101100
-31 0 -33 0 *
Fa
0  0.000000100000000 21 0

0101000
+9 0 +8 0 *
Ed
 0.000000100000000 1 1 0
1  28 0 0.000000000000000 6.400000000000000
3  80 81CN 22 0 0.000000000000000 6.400000000000000
0

0101000
+18 0 -11 0 *
Wi

0101100
-10 0 +6 0 +17 0 -6 0 *
Fa
0  0.000000100000000 22 0

0101000
+5 0 *
Sh

0101100
+131 0 -126 0 +121 0 +80 0 +75 0 -72 0 +69 0 +66 0 +63 0 +60 0 
+57 0 +54 0 +51 0 +48 0 +45 0 +42 0 +39 0 +36 0 -29 0 -12 0 
+7 0 +4 0 *
So

0100000
+3 0 *
Co

1100000
+2 0 *

+1 1 