
CASCADE Topology V1, (c) Matra-Datavision
Locations 62
1
-1.000000000000000 0.000000000000000 0.000000000000000 0.000000000000062 
0.000000000000000 1.000000000000000 0.000000000000000 340.050000000000068 
-0.000000000000000 0.000000000000000 -1.000000000000000 291.700000000000045 
1
1.000000000000000 0.000000000000000 0.000000000000000 0.000000000000000 
0.000000000000000 1.000000000000000 0.000000000000000 0.000000000000000 
0.000000000000000 0.000000000000000 1.000000000000000 47.750000000000000 
2  2 -1 0
1
0.965925826289068 -0.258819045102521 0.000000000000000 0.000000000000000 
0.258819045102521 0.965925826289068 0.000000000000000 0.000000000000000 
0.000000000000000 0.000000000000000 1.000000000000000 0.000000000000000 
1
0.866025403784439 -0.500000000000000 0.000000000000000 0.000000000000000 
0.500000000000000 0.866025403784439 0.000000000000000 0.000000000000000 
0.000000000000000 0.000000000000000 1.000000000000000 0.000000000000000 
1
0.866025403784439 -0.500000000000000 0.000000000000000 0.000000000000000 
0.500000000000000 0.866025403784439 0.000000000000000 0.000000000000000 
0.000000000000000 0.000000000000000 1.000000000000000 0.000000000000000 
1
0.866025403784439 -0.500000000000000 0.000000000000000 0.000000000000000 
0.500000000000000 0.866025403784439 0.000000000000000 0.000000000000000 
0.000000000000000 0.000000000000000 1.000000000000000 0.000000000000000 
1
0.866025403784439 -0.500000000000000 0.000000000000000 0.000000000000000 
0.500000000000000 0.866025403784439 0.000000000000000 0.000000000000000 
0.000000000000000 0.000000000000000 1.000000000000000 0.000000000000000 
1
0.866025403784439 -0.500000000000000 0.000000000000000 0.000000000000000 
0.500000000000000 0.866025403784439 0.000000000000000 0.000000000000000 
0.000000000000000 0.000000000000000 1.000000000000000 0.000000000000000 
1
0.866025403784439 -0.500000000000000 0.000000000000000 0.000000000000000 
0.500000000000000 0.866025403784439 0.000000000000000 0.000000000000000 
0.000000000000000 0.000000000000000 1.000000000000000 0.000000000000000 
1
0.866025403784439 -0.500000000000000 0.000000000000000 0.000000000000000 
0.500000000000000 0.866025403784439 0.000000000000000 0.000000000000000 
0.000000000000000 0.000000000000000 1.000000000000000 0.000000000000000 
2  4 1 5 1 6 1 7 1 8 1 9 1 10 1 11 1 2 1 0
2  11 -1 10 -1 9 -1 8 -1 7 -1 6 -1 5 -1 4 -1 0
2  2 -1 11 -1 10 -1 9 -1 8 -1 7 -1 6 -1 5 -1 4 -1 0
1
0.866025403784439 -0.500000000000000 0.000000000000000 0.000000000000000 
0.500000000000000 0.866025403784439 0.000000000000000 0.000000000000000 
0.000000000000000 0.000000000000000 1.000000000000000 0.000000000000000 
2  4 1 5 1 6 1 7 1 8 1 9 1 10 1 11 1 15 1 2 1 0
2  15 -1 11 -1 10 -1 9 -1 8 -1 7 -1 6 -1 5 -1 4 -1 0
2  2 -1 15 -1 11 -1 10 -1 9 -1 8 -1 7 -1 6 -1 5 -1 4 -1 0
2  4 1 5 1 6 1 7 1 8 1 9 1 10 1 2 1 0
2  10 -1 9 -1 8 -1 7 -1 6 -1 5 -1 4 -1 0
2  2 -1 10 -1 9 -1 8 -1 7 -1 6 -1 5 -1 4 -1 0
1
0.866025403784439 -0.500000000000000 0.000000000000000 0.000000000000000 
0.500000000000000 0.866025403784439 0.000000000000000 0.000000000000000 
0.000000000000000 0.000000000000000 1.000000000000000 0.000000000000000 
2  4 1 5 1 6 1 7 1 8 1 9 1 10 1 11 1 15 1 22 1 2 1 0
2  22 -1 15 -1 11 -1 10 -1 9 -1 8 -1 7 -1 6 -1 5 -1 4 -1 0
2  2 -1 22 -1 15 -1 11 -1 10 -1 9 -1 8 -1 7 -1 6 -1 5 -1 4 -1 0
1
0.866025403784439 -0.500000000000000 0.000000000000000 0.000000000000000 
0.500000000000000 0.866025403784439 0.000000000000000 0.000000000000000 
0.000000000000000 0.000000000000000 1.000000000000000 0.000000000000000 
2  4 1 5 1 6 1 7 1 8 1 9 1 10 1 11 1 15 1 22 1 26 1 2 1 0
2  26 -1 22 -1 15 -1 11 -1 10 -1 9 -1 8 -1 7 -1 6 -1 5 -1 4 -1 0
2  2 -1 26 -1 22 -1 15 -1 11 -1 10 -1 9 -1 8 -1 7 -1 6 -1 5 -1 4 -1 0
1
0.866025403784439 -0.500000000000000 0.000000000000000 0.000000000000000 
0.500000000000000 0.866025403784439 0.000000000000000 0.000000000000000 
0.000000000000000 0.000000000000000 1.000000000000000 0.000000000000000 
2  4 1 5 1 6 1 7 1 8 1 9 1 10 1 11 1 15 1 22 1 26 1 30 1 2 1 0
2  30 -1 26 -1 22 -1 15 -1 11 -1 10 -1 9 -1 8 -1 7 -1 6 -1 5 -1 4 -1 0
2  2 -1 30 -1 26 -1 22 -1 15 -1 11 -1 10 -1 9 -1 8 -1 7 -1 6 -1 5 -1 4 -1 0
2  4 1 5 1 6 1 7 1 8 1 9 1 2 1 0
2  9 -1 8 -1 7 -1 6 -1 5 -1 4 -1 0
2  2 -1 9 -1 8 -1 7 -1 6 -1 5 -1 4 -1 0
2  4 1 5 1 6 1 7 1 8 1 2 1 0
2  8 -1 7 -1 6 -1 5 -1 4 -1 0
2  2 -1 8 -1 7 -1 6 -1 5 -1 4 -1 0
2  4 1 5 1 6 1 7 1 2 1 0
2  7 -1 6 -1 5 -1 4 -1 0
2  2 -1 7 -1 6 -1 5 -1 4 -1 0
2  4 1 2 1 0
2  4 -1 0
2  2 -1 4 -1 0
2  4 1 5 1 6 1 2 1 0
2  6 -1 5 -1 4 -1 0
2  2 -1 6 -1 5 -1 4 -1 0
2  4 1 5 1 2 1 0
2  5 -1 4 -1 0
2  2 -1 5 -1 4 -1 0
2  4 1 5 1 6 1 7 1 8 1 9 1 10 1 11 1 0
2  4 1 5 1 6 1 7 1 8 1 9 1 10 1 11 1 15 1 0
2  4 1 5 1 6 1 7 1 8 1 9 1 10 1 0
2  4 1 5 1 6 1 7 1 8 1 9 1 10 1 11 1 15 1 22 1 0
2  4 1 5 1 6 1 7 1 8 1 9 1 10 1 11 1 15 1 22 1 26 1 0
2  4 1 5 1 6 1 7 1 8 1 9 1 10 1 11 1 15 1 22 1 26 1 30 1 0
2  4 1 5 1 6 1 7 1 8 1 9 1 0
2  4 1 5 1 6 1 7 1 8 1 0
2  4 1 5 1 6 1 7 1 0
2  4 1 5 1 6 1 0
2  4 1 5 1 0
Curve2ds 81
1 6.28318530717958623 -0.00000000000000000 0.00000000000000000 1.00000000000000000 
1 0.00000000000000000 -0.00000000000000000 0.00000000000000000 1.00000000000000000 
1 0.00000000000000000 3.59235969263349642 1.00000000000000000 0.00000000000000000 
1 0.00000000000000000 7.96251817603779521 1.00000000000000000 0.00000000000000000 
1 0.00000000000000000 61.80333749078604910 1.00000000000000000 0.00000000000000000 
2 0.00000000000000000 0.00000000000000000 1.00000000000000000 0.00000000000000000 -0.00000000000000000 1.00000000000000000 84.20000000000000284
1 0.00000000000000000 103.37999999999999545 1.00000000000000000 0.00000000000000000 
8 3.59235969263349642 4.71238898038468967
1 6.28318530717958623 0.00000000000000000 0.00000000000000000 1.00000000000000000 
8 3.59235969263349642 4.71238898038468967
1 0.00000000000000000 0.00000000000000000 0.00000000000000000 1.00000000000000000 
1 0.00000000000000000 4.71238898038468967 1.00000000000000000 0.00000000000000000 
2 0.00000000000000788 -0.00000000000000849 1.00000000000000000 -0.00000000000000006 0.00000000000000006 1.00000000000000000 119.08751817603780410
1 6.28318530717958623 -0.00000000000000000 0.00000000000000000 1.00000000000000000 
1 0.00000000000000000 -0.00000000000000000 0.00000000000000000 1.00000000000000000 
1 0.00000000000000000 117.34999999999999432 1.00000000000000000 0.00000000000000000 
2 0.00000000000000000 0.00000000000000000 1.00000000000000000 0.00000000000000000 -0.00000000000000000 1.00000000000000000 84.20000000000000284
1 0.00000000000000000 0.00000000000000000 1.00000000000000000 0.00000000000000000 
1 0.00000000000000000 -47.75000000000000000 1.00000000000000000 0.00000000000000000 
1 0.00000000000000000 0.00000000000000000 1.00000000000000000 0.00000000000000000 
1 0.00000000000000000 -47.75000000000000000 1.00000000000000000 0.00000000000000000 
1 0.00000000000000000 0.00000000000000000 1.00000000000000000 0.00000000000000000 
1 0.00000000000000000 -47.75000000000000000 1.00000000000000000 0.00000000000000000 
1 0.00000000000000000 0.00000000000000000 1.00000000000000000 0.00000000000000000 
1 0.00000000000000000 -47.75000000000000000 1.00000000000000000 0.00000000000000000 
1 0.00000000000000000 0.00000000000000000 1.00000000000000000 0.00000000000000000 
1 0.00000000000000000 -47.75000000000000000 1.00000000000000000 0.00000000000000000 
1 0.00000000000000000 0.00000000000000000 1.00000000000000000 0.00000000000000000 
1 0.00000000000000000 -47.75000000000000000 1.00000000000000000 0.00000000000000000 
1 0.00000000000000000 0.00000000000000000 1.00000000000000000 0.00000000000000000 
1 0.00000000000000000 -47.75000000000000000 1.00000000000000000 0.00000000000000000 
1 0.00000000000000000 0.00000000000000000 1.00000000000000000 0.00000000000000000 
1 0.00000000000000000 -47.75000000000000000 1.00000000000000000 0.00000000000000000 
1 0.00000000000000000 0.00000000000000000 1.00000000000000000 0.00000000000000000 
1 0.00000000000000000 -47.75000000000000000 1.00000000000000000 0.00000000000000000 
1 0.00000000000000000 0.00000000000000000 1.00000000000000000 0.00000000000000000 
1 0.00000000000000000 -47.75000000000000000 1.00000000000000000 0.00000000000000000 
1 0.00000000000000000 0.00000000000000000 1.00000000000000000 0.00000000000000000 
1 0.00000000000000000 -47.75000000000000000 1.00000000000000000 0.00000000000000000 
1 0.00000000000000000 0.00000000000000000 1.00000000000000000 0.00000000000000000 
1 0.00000000000000000 -47.75000000000000000 1.00000000000000000 0.00000000000000000 
1 0.00000000000000000 0.00000000000000000 1.00000000000000000 0.00000000000000000 
1 0.00000000000000000 -47.75000000000000000 1.00000000000000000 0.00000000000000000 
2 0.00000000000000000 0.00000000000000000 1.00000000000000000 0.00000000000000000 -0.00000000000000000 1.00000000000000000 73.16500000000000625
1 0.00000000000000000 117.34999999999999432 1.00000000000000000 0.00000000000000000 
1 0.00000000000000000 0.00000000000000000 0.00000000000000000 -1.00000000000000000 
1 6.28318530717958623 0.00000000000000000 0.00000000000000000 -1.00000000000000000 
1 0.00000000000000000 0.00000000000000000 0.00000000000000000 -1.00000000000000000 
1 6.28318530717958623 0.00000000000000000 0.00000000000000000 -1.00000000000000000 
1 0.00000000000000000 0.00000000000000000 0.00000000000000000 -1.00000000000000000 
1 6.28318530717958623 0.00000000000000000 0.00000000000000000 -1.00000000000000000 
1 0.00000000000000000 0.00000000000000000 0.00000000000000000 -1.00000000000000000 
1 6.28318530717958623 0.00000000000000000 0.00000000000000000 -1.00000000000000000 
1 0.00000000000000000 0.00000000000000000 0.00000000000000000 -1.00000000000000000 
1 6.28318530717958623 0.00000000000000000 0.00000000000000000 -1.00000000000000000 
1 0.00000000000000000 0.00000000000000000 0.00000000000000000 -1.00000000000000000 
1 6.28318530717958623 0.00000000000000000 0.00000000000000000 -1.00000000000000000 
1 0.00000000000000000 0.00000000000000000 0.00000000000000000 -1.00000000000000000 
1 6.28318530717958623 0.00000000000000000 0.00000000000000000 -1.00000000000000000 
1 0.00000000000000000 0.00000000000000000 0.00000000000000000 -1.00000000000000000 
1 6.28318530717958623 0.00000000000000000 0.00000000000000000 -1.00000000000000000 
1 0.00000000000000000 0.00000000000000000 0.00000000000000000 -1.00000000000000000 
1 6.28318530717958623 0.00000000000000000 0.00000000000000000 -1.00000000000000000 
1 0.00000000000000000 0.00000000000000000 0.00000000000000000 -1.00000000000000000 
1 6.28318530717958623 0.00000000000000000 0.00000000000000000 -1.00000000000000000 
1 0.00000000000000000 0.00000000000000000 0.00000000000000000 -1.00000000000000000 
1 6.28318530717958623 0.00000000000000000 0.00000000000000000 -1.00000000000000000 
1 0.00000000000000000 0.00000000000000000 0.00000000000000000 -1.00000000000000000 
1 6.28318530717958623 0.00000000000000000 0.00000000000000000 -1.00000000000000000 
1 0.00000000000000000 0.00000000000000000 0.00000000000000000 -1.00000000000000000 
1 6.28318530717958623 0.00000000000000000 0.00000000000000000 -1.00000000000000000 
2 0.00000000000000000 0.00000000000000000 1.00000000000000000 0.00000000000000000 -0.00000000000000000 1.00000000000000000 73.16500000000000625
1 9.42477796076937935 -6.40000000000000036 -1.00000000000000000 0.00000000000000000 
1 6.28318530717958623 0.00000000000000000 0.00000000000000000 1.00000000000000000 
1 0.00000000000000000 0.00000000000000000 0.00000000000000000 1.00000000000000000 
2 0.00000000000000000 0.00000000000000000 1.00000000000000000 0.00000000000000000 -0.00000000000000000 1.00000000000000000 73.16500000000000625
1 3.14159265358979312 -6.40000000000000036 -1.00000000000000000 0.00000000000000000 
1 0.00000000000000000 0.00000000000000000 1.00000000000000000 0.00000000000000000 
2 0.00000000000000000 0.00000000000000000 1.00000000000000000 0.00000000000000000 -0.00000000000000000 1.00000000000000000 107.95000000000000284
1 0.00000000000000000 6.40000000000000036 1.00000000000000000 0.00000000000000000 
2 0.00000000000000000 0.00000000000000000 1.00000000000000000 0.00000000000000000 -0.00000000000000000 1.00000000000000000 107.95000000000000284
1 6.28318530717958623 -0.00000000000000000 0.00000000000000000 1.00000000000000000 
1 0.00000000000000000 -0.00000000000000000 0.00000000000000000 1.00000000000000000 
Curves 28
1 111.12500000000000000 -0.00000000000002722 47.75000000000000000 -0.43565608417205803 0.00000000000000011 0.90011320194954847 
2 0.00000000000000000 0.00000000000000000 54.91716773101485671 0.00000000000000000 0.00000000000000000 1.00000000000000000 1.00000000000000000 -0.00000000000000006 0.00000000000000000 0.00000000000000006 1.00000000000000000 -0.00000000000000000 107.65608051127853173
2 0.00000000000000000 0.00000000000000000 103.37999999999999545 0.00000000000000000 0.00000000000000000 1.00000000000000000 1.00000000000000000 0.00000000000000000 -0.00000000000000000 -0.00000000000000000 1.00000000000000000 0.00000000000000000 84.20000000000000284
2 119.08751817603780410 -0.00000000000000729 60.45000000000000284 -0.00000000000000006 -1.00000000000000000 0.00000000000000000 1.00000000000000000 -0.00000000000000006 0.00000000000000000 0.00000000000000000 0.00000000000000000 1.00000000000000000 12.69999999999999929
2 0.00000000000000000 0.00000000000000000 47.75000000000000000 0.00000000000000000 0.00000000000000000 1.00000000000000000 1.00000000000000000 -0.00000000000000006 0.00000000000000000 0.00000000000000006 1.00000000000000000 -0.00000000000000000 119.08751817603780410
1 84.20000000000000284 -0.00000000000002062 0.00000000000000000 0.00000000000000000 0.00000000000000000 1.00000000000000000 
2 0.00000000000000000 0.00000000000000000 117.34999999999999432 0.00000000000000000 0.00000000000000000 1.00000000000000000 1.00000000000000000 0.00000000000000000 -0.00000000000000000 -0.00000000000000000 1.00000000000000000 0.00000000000000000 84.20000000000000284
2 0.00000000000000000 0.00000000000000000 0.00000000000000000 0.00000000000000000 0.00000000000000000 1.00000000000000000 1.00000000000000000 0.00000000000000000 -0.00000000000000000 -0.00000000000000000 1.00000000000000000 0.00000000000000000 177.80000000000001137
2 146.05000000000001137 0.00000000000000000 0.00000000000000000 0.00000000000000000 0.00000000000000000 1.00000000000000000 1.00000000000000000 0.00000000000000000 -0.00000000000000000 -0.00000000000000000 1.00000000000000000 0.00000000000000000 14.22499999999999964
2 0.00000000000000000 0.00000000000000000 117.34999999999999432 0.00000000000000000 0.00000000000000000 1.00000000000000000 1.00000000000000000 0.00000000000000000 -0.00000000000000000 -0.00000000000000000 1.00000000000000000 0.00000000000000000 73.16500000000000625
1 177.80000000000001137 0.00000000000000000 0.00000000000000000 0.00000000000000000 0.00000000000000000 1.00000000000000000 
1 -113.33153935467396423 -113.33153935467382212 0.00000000000000000 0.00000000000000000 0.00000000000000000 1.00000000000000000 
1 -41.48222245380664930 -154.81376180848042168 0.00000000000000000 0.00000000000000000 0.00000000000000000 1.00000000000000000 
1 -154.81376180848045010 -41.48222245380642192 0.00000000000000000 0.00000000000000000 0.00000000000000000 1.00000000000000000 
1 41.48222245380638640 -154.81376180848047852 0.00000000000000000 0.00000000000000000 0.00000000000000000 1.00000000000000000 
1 113.33153935467380791 -113.33153935467402107 0.00000000000000000 0.00000000000000000 0.00000000000000000 1.00000000000000000 
1 154.81376180848039326 -41.48222245380667061 0.00000000000000000 0.00000000000000000 0.00000000000000000 1.00000000000000000 
1 -154.81376180848042168 41.48222245380659956 0.00000000000000000 0.00000000000000000 0.00000000000000000 1.00000000000000000 
1 -113.33153935467386475 113.33153935467395002 0.00000000000000000 0.00000000000000000 0.00000000000000000 1.00000000000000000 
1 -41.48222245380647166 154.81376180848045010 0.00000000000000000 0.00000000000000000 0.00000000000000000 1.00000000000000000 
1 154.81376180848042168 41.48222245380651430 0.00000000000000000 0.00000000000000000 0.00000000000000000 1.00000000000000000 
1 41.48222245380655693 154.81376180848042168 0.00000000000000000 0.00000000000000000 0.00000000000000000 1.00000000000000000 
1 113.33153935467392159 113.33153935467389317 0.00000000000000000 0.00000000000000000 0.00000000000000000 1.00000000000000000 
2 0.00000000000000000 0.00000000000000000 -6.40000000000000036 -0.00000000000000000 -0.00000000000000000 -1.00000000000000000 -1.00000000000000000 0.00000000000000000 0.00000000000000000 0.00000000000000000 1.00000000000000000 -0.00000000000000000 73.16500000000000625
7 0 0  1 2 2  73.16500000000000625 0.00000000000000000 -6.40000000000000036  73.16500000000000625 0.00000000000000000 117.34999999999999432 
 -6.40000000000000036 2 117.34999999999999432 2
2 0.00000000000000000 0.00000000000000000 0.00000000000000000 -0.00000000000000000 -0.00000000000000000 -1.00000000000000000 -1.00000000000000000 0.00000000000000000 0.00000000000000000 0.00000000000000000 1.00000000000000000 -0.00000000000000000 107.95000000000000284
2 0.00000000000000000 0.00000000000000000 -6.40000000000000036 -0.00000000000000000 -0.00000000000000000 -1.00000000000000000 -1.00000000000000000 0.00000000000000000 0.00000000000000000 0.00000000000000000 1.00000000000000000 -0.00000000000000000 107.95000000000000284
1 -107.95000000000000284 -0.00000000000002644 0.00000000000000000 0.00000000000000000 -0.00000000000000000 -1.00000000000000000 
Polygon3D 0
PolygonOnTriangulations 0
Surfaces 23
3 0.00000000000000000 0.00000000000000000 47.75000000000000000 0.00000000000000000 0.00000000000000000 1.00000000000000000 1.00000000000000000 0.00000000000000000 -0.00000000000000000 -0.00000000000000000 1.00000000000000000 0.00000000000000000 111.12500000000000000
-0.45076703904370302
5 0.00000000000000000 0.00000000000000000 60.45000000000000284 0.00000000000000000 0.00000000000000000 1.00000000000000000 1.00000000000000000 -0.00000000000000006 0.00000000000000000 0.00000000000000006 1.00000000000000000 -0.00000000000000000 119.08751817603780410 12.69999999999999929
1 0.00000000000000000 0.00000000000000000 103.37999999999999545 0.00000000000000000 0.00000000000000000 1.00000000000000000 1.00000000000000000 0.00000000000000000 -0.00000000000000000 -0.00000000000000000 1.00000000000000000 0.00000000000000000 
2 0.00000000000000000 0.00000000000000000 0.00000000000000000 0.00000000000000000 0.00000000000000000 1.00000000000000000 1.00000000000000000 0.00000000000000000 -0.00000000000000000 -0.00000000000000000 1.00000000000000000 0.00000000000000000 84.20000000000000284
1 -0.00000000000000788 0.00000000000000849 0.00000000000000000 0.00000000000000000 0.00000000000000000 1.00000000000000000 1.00000000000000000 0.00000000000000000 -0.00000000000000000 -0.00000000000000000 1.00000000000000000 0.00000000000000000 
1 0.00000000000000000 0.00000000000000000 117.34999999999999432 0.00000000000000000 0.00000000000000000 1.00000000000000000 1.00000000000000000 0.00000000000000000 -0.00000000000000000 -0.00000000000000000 1.00000000000000000 0.00000000000000000 
2 0.00000000000000000 0.00000000000000000 0.00000000000000000 -0.00000000000000000 -0.00000000000000000 -1.00000000000000000 1.00000000000000000 0.00000000000000000 -0.00000000000000000 -0.00000000000000000 1.00000000000000000 0.00000000000000000 177.80000000000001137
2 -103.27294539229532688 -103.27294539229519899 0.00000000000000000 -0.00000000000000000 -0.00000000000000000 -1.00000000000000000 -0.70710678118654802 -0.70710678118654713 0.00000000000000000 0.70710678118654713 -0.70710678118654802 0.00000000000000000 14.22499999999999964
2 -37.80052153722327546 -141.07346692951841760 0.00000000000000000 -0.00000000000000000 -0.00000000000000000 -1.00000000000000000 -0.25881904510252157 -0.96592582628906820 0.00000000000000000 0.96592582628906820 -0.25881904510252157 0.00000000000000000 14.22499999999999964
2 -141.07346692951844602 -37.80052153722307651 0.00000000000000000 -0.00000000000000000 -0.00000000000000000 -1.00000000000000000 -0.96592582628906842 -0.25881904510252018 0.00000000000000000 0.25881904510252018 -0.96592582628906842 0.00000000000000000 14.22499999999999964
2 37.80052153722304098 -141.07346692951847444 0.00000000000000000 0.00000000000000000 -0.00000000000000000 -1.00000000000000000 0.25881904510251996 -0.96592582628906853 0.00000000000000000 0.96592582628906853 0.25881904510251996 0.00000000000000000 14.22499999999999964
2 103.27294539229518477 -103.27294539229538373 0.00000000000000000 0.00000000000000000 -0.00000000000000000 -1.00000000000000000 0.70710678118654691 -0.70710678118654824 0.00000000000000000 0.70710678118654824 0.70710678118654691 0.00000000000000000 14.22499999999999964
2 141.07346692951841760 -37.80052153722330388 0.00000000000000000 0.00000000000000000 -0.00000000000000000 -1.00000000000000000 0.96592582628906809 -0.25881904510252174 0.00000000000000000 0.25881904510252174 0.96592582628906809 0.00000000000000000 14.22499999999999964
2 -141.07346692951841760 37.80052153722323993 0.00000000000000000 -0.00000000000000000 -0.00000000000000000 -1.00000000000000000 -0.96592582628906820 0.25881904510252129 0.00000000000000000 -0.25881904510252129 -0.96592582628906820 0.00000000000000000 14.22499999999999964
2 -103.27294539229522741 103.27294539229531267 0.00000000000000000 -0.00000000000000000 -0.00000000000000000 -1.00000000000000000 -0.70710678118654724 0.70710678118654779 0.00000000000000000 -0.70710678118654779 -0.70710678118654724 0.00000000000000000 14.22499999999999964
2 -37.80052153722311914 141.07346692951844602 0.00000000000000000 -0.00000000000000000 -0.00000000000000000 -1.00000000000000000 -0.25881904510252046 0.96592582628906842 0.00000000000000000 -0.96592582628906842 -0.25881904510252046 0.00000000000000000 14.22499999999999964
2 141.07346692951844602 37.80052153722315467 0.00000000000000000 -0.00000000000000000 0.00000000000000000 -1.00000000000000000 0.96592582628906831 0.25881904510252074 0.00000000000000000 -0.25881904510252074 0.96592582628906831 0.00000000000000000 14.22499999999999964
2 37.80052153722319730 141.07346692951841760 0.00000000000000000 -0.00000000000000000 0.00000000000000000 -1.00000000000000000 0.25881904510252102 0.96592582628906820 0.00000000000000000 -0.96592582628906820 0.25881904510252102 0.00000000000000000 14.22499999999999964
2 103.27294539229528425 103.27294539229527004 0.00000000000000000 -0.00000000000000000 0.00000000000000000 -1.00000000000000000 0.70710678118654757 0.70710678118654746 0.00000000000000000 -0.70710678118654746 0.70710678118654757 0.00000000000000000 14.22499999999999964
10 0.00000000000000000 6.28318530717958623 -6.40000000000000036 117.34999999999999432
2 0.00000000000000000 0.00000000000000000 0.00000000000000000 0.00000000000000000 0.00000000000000000 1.00000000000000000 1.00000000000000000 0.00000000000000000 -0.00000000000000000 -0.00000000000000000 1.00000000000000000 0.00000000000000000 73.16500000000000625
1 0.00000000000000000 0.00000000000000000 -6.40000000000000036 -0.00000000000000000 -0.00000000000000000 -1.00000000000000000 -1.00000000000000000 0.00000000000000000 0.00000000000000000 0.00000000000000000 1.00000000000000000 -0.00000000000000000 
2 0.00000000000000000 0.00000000000000000 0.00000000000000000 -0.00000000000000000 -0.00000000000000000 -1.00000000000000000 -1.00000000000000000 0.00000000000000000 0.00000000000000000 0.00000000000000000 1.00000000000000000 -0.00000000000000000 107.95000000000000284
1 0.00000000000000000 0.00000000000000000 0.00000000000000000 -0.00000000000000000 -0.00000000000000000 -1.00000000000000000 -1.00000000000000000 0.00000000000000000 0.00000000000000000 0.00000000000000000 1.00000000000000000 -0.00000000000000000 
Triangulations 0

TShapes 137
Ve
0.000000100000000
107.656080511278532 -0.000000000000007 54.917167731014864
0 0

0101101
*
Ve
0.000000100000007
84.200000000000003 -0.000000000000021 103.379999999999995
0 0

0101101
*
Ed
 0.000000100000000 1 1 0
1  1 0 7.962518176037795 61.803337490786049
3  1 2CN 1 0 7.962518176037795 61.803337490786049
0

0101000
+137 0 -136 0 *
Ed
 0.000000100000000 1 1 0
1  2 0 0.000000000000000 6.283185307179586
2  3 2 0 0.000000000000000 6.283185307179586
2  4 1 0 0.000000000000000 6.283185307179586
4 G1 2 0 1 0
0

0101000
+137 0 -137 0 *
Ed
 0.000000100000007 1 1 0
1  3 0 0.000000000000000 6.283185307179586
2  5 1 0 0.000000000000000 6.283185307179586
2  6 3 0 0.000000000000000 6.283185307179586
2  7 4 0 0.000000000000000 6.283185307179586
0

0101000
+136 0 -136 0 *
Wi

0101100
+135 0 +134 0 -133 0 -135 0 *
Fa
0  0.000000100000000 1 0

0101000
+132 0 *
Ve
0.000000100000000
119.087518176037804 -0.000000000000007 47.750000000000000
0 0

0101101
*
Ed
 0.000000100000000 1 1 0
1  4 0 3.592359692633496 4.712388980384690
3  8 9CN 2 0 3.592359692633496 4.712388980384690
0

0101000
+137 0 -130 0 *
Ed
 0.000000100000000 1 1 0
1  5 0 0.000000000000000 6.283185307179586
2  10 2 0 0.000000000000000 6.283185307179586
2  11 5 2 0.000000000000000 6.283185307179586
4 G1 2 0 5 2
0

0101000
+130 0 -130 0 *
Wi

0101100
-129 0 +134 0 -128 0 +129 0 *
Fa
0  0.000000000000000 2 0

0101000
+127 0 *
Ve
0.000000100000000
84.200000000000003 -0.000000000000021 117.349999999999994
0 0

0101101
*
Ed
 0.000000100000000 1 1 0
1  6 0 103.379999999999995 117.349999999999994
3  12 13CN 4 0 103.379999999999995 117.349999999999994
0

0101000
+136 0 -125 0 *
Ed
 0.000000100000000 1 1 0
1  7 0 0.000000000000000 6.283185307179586
2  14 4 0 0.000000000000000 6.283185307179586
2  15 6 0 0.000000000000000 6.283185307179586
0

0101000
+125 0 -125 0 *
Wi

0101100
+133 0 -124 0 -123 0 +124 0 *
Fa
0  0.000000100000000 4 0

0101000
+122 0 *
Wi

0101100
-128 0 *
Ve
0.000000100000000
177.800000000000011 0.000000000000000 0.000000000000000
0 0

0101101
*
Ed
 0.000000100000000 1 1 0
1  8 0 0.000000000000000 6.283185307179586
2  16 7 0 0.000000000000000 6.283185307179586
2  17 7 3 0.000000000000000 6.283185307179586
0

0101100
+119 0 -119 0 *
Wi

0101100
+118 2 *
Ve
0.000000100000000
-113.331539354673964 -113.331539354673822 0.000000000000000
0 0

0101101
*
Ed
 0.000000100000000 1 1 0
1  9 0 0.000000000000000 6.283185307179586
2  18 8 13 0.000000000000000 6.283185307179586
2  19 8 14 0.000000000000000 6.283185307179586
0

0101000
+116 13 -116 13 *
Wi

0101100
-115 12 *
Ve
0.000000100000000
-41.482222453806649 -154.813761808480422 0.000000000000000
0 0

0101101
*
Ed
 0.000000100000000 1 1 0
1  9 0 0.000000000000000 6.283185307179586
2  20 9 17 0.000000000000000 6.283185307179586
2  21 9 18 0.000000000000000 6.283185307179586
0

0101000
+113 17 -113 17 *
Wi

0101100
-112 16 *
Ve
0.000000100000000
-154.813761808480450 -41.482222453806422 0.000000000000000
0 0

0101101
*
Ed
 0.000000100000000 1 1 0
1  9 0 0.000000000000000 6.283185307179586
2  22 10 20 0.000000000000000 6.283185307179586
2  23 10 21 0.000000000000000 6.283185307179586
0

0101000
+110 20 -110 20 *
Wi

0101100
-109 19 *
Ve
0.000000100000000
41.482222453806386 -154.813761808480479 0.000000000000000
0 0

0101101
*
Ed
 0.000000100000000 1 1 0
1  9 0 0.000000000000000 6.283185307179586
2  24 11 24 0.000000000000000 6.283185307179586
2  25 11 25 0.000000000000000 6.283185307179586
0

0101000
+107 24 -107 24 *
Wi

0101100
-106 23 *
Ve
0.000000100000000
113.331539354673808 -113.331539354674021 0.000000000000000
0 0

0101101
*
Ed
 0.000000100000000 1 1 0
1  9 0 0.000000000000000 6.283185307179586
2  26 12 28 0.000000000000000 6.283185307179586
2  27 12 29 0.000000000000000 6.283185307179586
0

0101000
+104 28 -104 28 *
Wi

0101100
-103 27 *
Ve
0.000000100000000
154.813761808480393 -41.482222453806671 0.000000000000000
0 0

0101101
*
Ed
 0.000000100000000 1 1 0
1  9 0 0.000000000000000 6.283185307179586
2  28 13 32 0.000000000000000 6.283185307179586
2  29 13 33 0.000000000000000 6.283185307179586
0

0101000
+101 32 -101 32 *
Wi

0101100
-100 31 *
Ve
0.000000100000000
-154.813761808480422 41.482222453806600 0.000000000000000
0 0

0101101
*
Ed
 0.000000100000000 1 1 0
1  9 0 0.000000000000000 6.283185307179586
2  30 14 35 0.000000000000000 6.283185307179586
2  31 14 36 0.000000000000000 6.283185307179586
0

0101000
+98 35 -98 35 *
Wi

0101100
-97 34 *
Ve
0.000000100000000
-113.331539354673865 113.331539354673950 0.000000000000000
0 0

0101101
*
Ed
 0.000000100000000 1 1 0
1  9 0 0.000000000000000 6.283185307179586
2  32 15 38 0.000000000000000 6.283185307179586
2  33 15 39 0.000000000000000 6.283185307179586
0

0101000
+95 38 -95 38 *
Wi

0101100
-94 37 *
Ve
0.000000100000000
-41.482222453806472 154.813761808480450 0.000000000000000
0 0

0101101
*
Ed
 0.000000100000000 1 1 0
1  9 0 0.000000000000000 6.283185307179586
2  34 16 41 0.000000000000000 6.283185307179586
2  35 16 42 0.000000000000000 6.283185307179586
0

0101000
+92 41 -92 41 *
Wi

0101100
-91 40 *
Ve
0.000000100000000
154.813761808480422 41.482222453806514 0.000000000000000
0 0

0101101
*
Ed
 0.000000100000000 1 1 0
1  9 0 0.000000000000000 6.283185307179586
2  36 17 44 0.000000000000000 6.283185307179586
2  37 17 45 0.000000000000000 6.283185307179586
0

0101000
+89 44 -89 44 *
Wi

0101100
-88 43 *
Ve
0.000000100000000
41.482222453806557 154.813761808480422 0.000000000000000
0 0

0101101
*
Ed
 0.000000100000000 1 1 0
1  9 0 0.000000000000000 6.283185307179586
2  38 18 47 0.000000000000000 6.283185307179586
2  39 18 48 0.000000000000000 6.283185307179586
0

0101000
+86 47 -86 47 *
Wi

0101100
-85 46 *
Ve
0.000000100000000
113.331539354673922 113.331539354673893 0.000000000000000
0 0

0101101
*
Ed
 0.000000100000000 1 1 0
1  9 0 0.000000000000000 6.283185307179586
2  40 19 50 0.000000000000000 6.283185307179586
2  41 19 51 0.000000000000000 6.283185307179586
0

0101000
+83 50 -83 50 *
Wi

0101100
-82 49 *
Fa
0  0.000000100000000 5 2

0101000
+120 0 +117 0 +114 0 +111 0 +108 0 +105 0 +102 0 +99 0 +96 0 +93 0 
+90 0 +87 0 +84 0 +81 0 *
Wi

0101100
+123 0 *
Ve
0.000010000000000
73.165000000000006 -0.000000000000018 117.349999999999994
0 0

0101101
*
Ed
 0.000000100000000 1 1 0
1  10 0 0.000000000000000 6.283185307179586
2  42 6 0 0.000000000000000 6.283185307179586
2  43 20 0 0.000000000000000 6.283185307179586
4 C0 6 0 20 0
0

0101000
+78 0 -78 0 *
Wi

0101100
-77 0 *
Fa
0  0.000000100000000 6 0

0101000
+79 0 +76 0 *
Ed
 0.000000100000000 1 1 0
1  11 0 0.000000000000000 47.750000000000000
3  44 45CN 7 0 0.000000000000000 47.750000000000000
0

0101000
+119 0 -119 2 *
Wi

0101100
+74 0 -74 0 -118 0 +118 2 *
Fa
0  0.000000100000000 7 0

0101000
+73 0 *
Ed
 0.000000100000000 1 1 0
1  12 0 0.000000000000000 47.750000000000000
3  46 47CN 8 0 0.000000000000000 47.750000000000000
0

0101000
+116 0 -116 2 *
Wi

0101100
+71 0 -71 0 -115 52 +115 12 *
Fa
0  0.000000100000000 8 0

0101000
+70 0 *
Ed
 0.000000100000000 1 1 0
1  13 0 0.000000000000000 47.750000000000000
3  48 49CN 9 0 0.000000000000000 47.750000000000000
0

0101000
+113 0 -113 2 *
Wi

0101100
+68 0 -68 0 -112 53 +112 16 *
Fa
0  0.000000100000000 9 0

0101000
+67 0 *
Ed
 0.000000100000000 1 1 0
1  14 0 0.000000000000000 47.750000000000000
3  50 51CN 10 0 0.000000000000000 47.750000000000000
0

0101000
+110 0 -110 2 *
Wi

0101100
+65 0 -65 0 -109 54 +109 19 *
Fa
0  0.000000100000000 10 0

0101000
+64 0 *
Ed
 0.000000100000000 1 1 0
1  15 0 0.000000000000000 47.750000000000000
3  52 53CN 11 0 0.000000000000000 47.750000000000000
0

0101000
+107 0 -107 2 *
Wi

0101100
+62 0 -62 0 -106 55 +106 23 *
Fa
0  0.000000100000000 11 0

0101000
+61 0 *
Ed
 0.000000100000000 1 1 0
1  16 0 0.000000000000000 47.750000000000000
3  54 55CN 12 0 0.000000000000000 47.750000000000000
0

0101000
+104 0 -104 2 *
Wi

0101100
+59 0 -59 0 -103 56 +103 27 *
Fa
0  0.000000100000000 12 0

0101000
+58 0 *
Ed
 0.000000100000000 1 1 0
1  17 0 0.000000000000000 47.750000000000000
3  56 57CN 13 0 0.000000000000000 47.750000000000000
0

0101000
+101 0 -101 2 *
Wi

0101100
+56 0 -56 0 -100 57 +100 31 *
Fa
0  0.000000100000000 13 0

0101000
+55 0 *
Ed
 0.000000100000000 1 1 0
1  18 0 0.000000000000000 47.750000000000000
3  58 59CN 14 0 0.000000000000000 47.750000000000000
0

0101000
+98 0 -98 2 *
Wi

0101100
+53 0 -53 0 -97 58 +97 34 *
Fa
0  0.000000100000000 14 0

0101000
+52 0 *
Ed
 0.000000100000000 1 1 0
1  19 0 0.000000000000000 47.750000000000000
3  60 61CN 15 0 0.000000000000000 47.750000000000000
0

0101000
+95 0 -95 2 *
Wi

0101100
+50 0 -50 0 -94 59 +94 37 *
Fa
0  0.000000100000000 15 0

0101000
+49 0 *
Ed
 0.000000100000000 1 1 0
1  20 0 0.000000000000000 47.750000000000000
3  62 63CN 16 0 0.000000000000000 47.750000000000000
0

0101000
+92 0 -92 2 *
Wi

0101100
+47 0 -47 0 -91 60 +91 40 *
Fa
0  0.000000100000000 16 0

0101000
+46 0 *
Ed
 0.000000100000000 1 1 0
1  21 0 0.000000000000000 47.750000000000000
3  64 65CN 17 0 0.000000000000000 47.750000000000000
0

0101000
+89 0 -89 2 *
Wi

0101100
+44 0 -44 0 -88 4 +88 43 *
Fa
0  0.000000100000000 17 0

0101000
+43 0 *
Ed
 0.000000100000000 1 1 0
1  22 0 0.000000000000000 47.750000000000000
3  66 67CN 18 0 0.000000000000000 47.750000000000000
0

0101000
+86 0 -86 2 *
Wi

0101100
+41 0 -41 0 -85 61 +85 46 *
Fa
0  0.000000100000000 18 0

0101000
+40 0 *
Ed
 0.000000100000000 1 1 0
1  23 0 0.000000000000000 47.750000000000000
3  68 69CN 19 0 0.000000000000000 47.750000000000000
0

0101000
+83 0 -83 2 *
Wi

0101100
+38 0 -38 0 -82 62 +82 49 *
Fa
0  0.000000100000000 19 0

0101000
+37 0 *
Ve
0.000010000000000
73.165000000000006 -0.000000000000018 -6.400000000000000
0 0

0101101
*
Ve
0.000000100000000
-73.165000000000006 -0.000000000000018 -6.400000000000000
0 0

0101101
*
Ed
 0.000000100000000 1 1 0
1  24 0 3.141592653589793 6.283185307179586
2  70 21 0 3.141592653589793 6.283185307179586
2  71 20 0 3.141592653589793 6.283185307179586
4 C0 21 0 20 0
0

0101000
+35 0 -34 0 *
Ed
 0.000010000000000 1 1 0
1  25 0 -6.400000000000000 117.349999999999994
3  72 73C0 20 0 -6.400000000000000 117.349999999999994
0

0101000
+35 0 -78 0 *
Ed
 0.000000100000000 1 1 0
1  24 0 0.000000000000000 3.141592653589793
2  74 21 0 0.000000000000000 3.141592653589793
2  75 20 0 0.000000000000000 3.141592653589793
4 C0 21 0 20 0
0

0101000
+34 0 -35 0 *
Wi

0101100
-33 0 +32 0 -77 0 -32 0 -31 0 *
Fa
0  0.000000100000000 20 0

0101000
+30 0 *
Wi

0101100
+118 0 *
Wi

0101100
-115 52 *
Wi

0101100
-112 53 *
Wi

0101100
-109 54 *
Wi

0101100
-106 55 *
Wi

0101100
-103 56 *
Wi

0101100
-100 57 *
Wi

0101100
-97 58 *
Wi

0101100
-94 59 *
Wi

0101100
-91 60 *
Ve
0.000000100000000
-107.950000000000003 -0.000000000000026 0.000000000000000
0 0

0101101
*
Ed
 0.000000100000000 1 1 0
1  26 0 0.000000000000000 6.283185307179586
2  76 22 0 0.000000000000000 6.283185307179586
2  77 23 0 0.000000000000000 6.283185307179586
0

0101000
+18 0 -18 0 *
Wi

0101100
+17 0 *
Wi

0101100
-88 4 *
Wi

0101100
-85 61 *
Wi

0101100
-82 62 *
Fa
0  0.000000100000000 5 0

0101000
+28 0 +27 0 +26 0 +25 0 +24 0 +23 0 +22 0 +21 0 +20 0 +19 0 
+16 0 +15 0 +14 0 +13 0 *
Ve
0.000000100000000
-107.950000000000003 -0.000000000000026 -6.400000000000000
0 0

0101101
*
Ed
 0.000000100000000 1 1 0
1  27 0 0.000000000000000 6.283185307179586
2  78 22 0 0.000000000000000 6.283185307179586
2  79 21 0 0.000000000000000 6.283185307179586
0

0101000
+11 0 -11 0 *
Wi

0101100
+10 0 *
Wi

0101100
-31 0 -33 0 *
Fa
0  0.000000100000000 21 0

0101000
+9 0 +8 0 *
Ed
 0.000000100000000 1 1 0
1  28 0 0.000000000000000 6.400000000000000
3  80 81CN 22 0 0.000000000000000 6.400000000000000
0

0101000
+18 0 -11 0 *
Wi

0101100
-10 0 +6 0 +17 0 -6 0 *
Fa
0  0.000000100000000 22 0

0101000
+5 0 *
Sh

0101100
+131 0 -126 0 +121 0 +80 0 +75 0 -72 0 +69 0 +66 0 +63 0 +60 0 
+57 0 +54 0 +51 0 +48 0 +45 0 +42 0 +39 0 +36 0 -29 0 -12 0 
+7 0 +4 0 *
So

0100000
+3 0 *
Co

1100000
+2 0 *

+1 1 