
CASCADE Topology V1, (c) Matra-Datavision
Locations 1
1
1.000000000000000 -0.000000000000000 0.000000000000000 -0.000000000000002 
0.000000000000000 -0.000000000000000 1.000000000000000 518.050000000000068 
-0.000000000000000 -1.000000000000000 -0.000000000000000 -155.650000000000006 
Curve2ds 12
1 0.00000000000000000 154.10762473025141617 1.00000000000000000 0.00000000000000000 
2 0.00000000000000000 0.00000000000000000 1.00000000000000000 0.00000000000000000 -0.00000000000000000 1.00000000000000000 84.13500000000000512
1 6.28318530717958623 -0.00000000000000000 0.00000000000000000 1.00000000000000000 
1 0.00000000000000000 -0.00000000000000000 0.00000000000000000 1.00000000000000000 
1 0.00000000000000000 0.00000000000000000 1.00000000000000000 0.00000000000000000 
2 0.00000000000000000 0.00000000000000000 1.00000000000000000 0.00000000000000000 -0.00000000000000000 1.00000000000000000 109.53499999999999659
1 0.00000000000000000 153.83195019240963575 1.00000000000000000 0.00000000000000000 
2 0.00000000000000000 0.00000000000000000 1.00000000000000000 0.00000000000000000 -0.00000000000000000 1.00000000000000000 73.16499999999999204
1 0.00000000000000000 0.00000000000000000 1.00000000000000000 0.00000000000000000 
2 0.00000000000000000 0.00000000000000000 1.00000000000000000 0.00000000000000000 -0.00000000000000000 1.00000000000000000 96.83499999999999375
1 6.28318530717958623 -0.00000000000000000 0.00000000000000000 1.00000000000000000 
1 0.00000000000000000 -0.00000000000000000 0.00000000000000000 1.00000000000000000 
Curves 6
2 0.00000000000000000 0.00000000000000000 152.00000000000000000 0.00000000000000000 0.00000000000000000 1.00000000000000000 1.00000000000000000 0.00000000000000000 -0.00000000000000000 -0.00000000000000000 1.00000000000000000 0.00000000000000000 84.13500000000000512
1 109.53499999999999659 -0.00000000000002683 0.00000000000000000 -0.16481987860405944 0.00000000000000004 0.98632368298492312 
2 0.00000000000000000 0.00000000000000000 0.00000000000000000 0.00000000000000000 0.00000000000000000 1.00000000000000000 1.00000000000000000 0.00000000000000000 -0.00000000000000000 -0.00000000000000000 1.00000000000000000 0.00000000000000000 109.53499999999999659
2 0.00000000000000000 0.00000000000000000 152.00000000000000000 0.00000000000000000 0.00000000000000000 1.00000000000000000 1.00000000000000000 0.00000000000000000 -0.00000000000000000 -0.00000000000000000 1.00000000000000000 0.00000000000000000 73.16499999999999204
2 0.00000000000000000 0.00000000000000000 0.00000000000000000 0.00000000000000000 0.00000000000000000 1.00000000000000000 1.00000000000000000 0.00000000000000000 -0.00000000000000000 -0.00000000000000000 1.00000000000000000 0.00000000000000000 96.83499999999999375
1 96.83499999999999375 -0.00000000000002372 0.00000000000000000 -0.15386920578198532 0.00000000000000004 0.98809122428651353 
Polygon3D 0
PolygonOnTriangulations 0
Surfaces 6
3 0.00000000000000000 0.00000000000000000 0.00000000000000000 0.00000000000000000 0.00000000000000000 1.00000000000000000 1.00000000000000000 0.00000000000000000 -0.00000000000000000 -0.00000000000000000 1.00000000000000000 0.00000000000000000 109.53499999999999659
-0.16557538957136053
1 0.00000000000000000 0.00000000000000000 152.00000000000000000 0.00000000000000000 0.00000000000000000 1.00000000000000000 1.00000000000000000 0.00000000000000000 -0.00000000000000000 -0.00000000000000000 1.00000000000000000 0.00000000000000000 
1 0.00000000000000000 0.00000000000000000 0.00000000000000000 0.00000000000000000 0.00000000000000000 1.00000000000000000 1.00000000000000000 0.00000000000000000 -0.00000000000000000 -0.00000000000000000 1.00000000000000000 0.00000000000000000 
3 0.00000000000000000 0.00000000000000000 0.00000000000000000 0.00000000000000000 0.00000000000000000 1.00000000000000000 1.00000000000000000 0.00000000000000000 -0.00000000000000000 -0.00000000000000000 1.00000000000000000 0.00000000000000000 96.83499999999999375
-0.15448292820657539
1 0.00000000000000000 0.00000000000000000 152.00000000000000000 0.00000000000000000 0.00000000000000000 1.00000000000000000 1.00000000000000000 0.00000000000000000 -0.00000000000000000 -0.00000000000000000 1.00000000000000000 0.00000000000000000 
1 0.00000000000000000 0.00000000000000000 0.00000000000000000 0.00000000000000000 0.00000000000000000 1.00000000000000000 1.00000000000000000 0.00000000000000000 -0.00000000000000000 -0.00000000000000000 1.00000000000000000 0.00000000000000000 
Triangulations 0

TShapes 23
Ve
0.000000100000000
84.135000000000005 -0.000000000000021 152.000000000000000
0 0

0101101
*
Ed
 0.000000100000000 1 1 0
1  1 0 0.000000000000000 6.283185307179586
2  1 1 0 0.000000000000000 6.283185307179586
2  2 2 0 0.000000000000000 6.283185307179586
0

0101000
+23 0 -23 0 *
Ve
0.000000100000000
109.534999999999997 -0.000000000000027 0.000000000000000
0 0

0101101
*
Ed
 0.000000100000000 1 1 0
1  2 0 0.000000000000000 154.107624730251416
3  3 4CN 1 0 0.000000000000000 154.107624730251416
0

0101000
-23 0 +21 0 *
Ed
 0.000000100000000 1 1 0
1  3 0 0.000000000000000 6.283185307179586
2  5 1 0 0.000000000000000 6.283185307179586
2  6 3 0 0.000000000000000 6.283185307179586
0

0101000
+21 0 -21 0 *
Wi

0101100
-22 0 +20 0 +19 0 -20 0 *
Fa
0  0.000000100000000 1 0

0101000
+18 0 *
Wi

0101100
+22 0 *
Ve
0.000000100000000
73.164999999999992 -0.000000000000018 152.000000000000000
0 0

0101101
*
Ed
 0.000000100000000 1 1 0
1  4 0 0.000000000000000 6.283185307179586
2  7 4 0 0.000000000000000 6.283185307179586
2  8 5 0 0.000000000000000 6.283185307179586
0

0101000
+15 0 -15 0 *
Wi

0101100
-14 0 *
Fa
0  0.000000100000000 2 0

0101000
+16 0 +13 0 *
Wi

0101100
+19 0 *
Ve
0.000000100000000
96.834999999999994 -0.000000000000024 0.000000000000000
0 0

0101101
*
Ed
 0.000000100000000 1 1 0
1  5 0 0.000000000000000 6.283185307179586
2  9 4 0 0.000000000000000 6.283185307179586
2  10 6 0 0.000000000000000 6.283185307179586
0

0101000
+10 0 -10 0 *
Wi

0101100
-9 0 *
Fa
0  0.000000100000000 3 0

0101000
+11 0 +8 0 *
Ed
 0.000000100000000 1 1 0
1  6 0 0.000000000000000 153.831950192409636
3  11 12CN 4 0 0.000000000000000 153.831950192409636
0

0101000
+10 0 -15 0 *
Wi

0101100
-14 0 +6 0 +9 0 -6 0 *
Fa
0  0.000000100000000 4 0

0101000
+5 0 *
Sh

0101100
+17 0 +12 0 -7 0 -4 0 *
So

0100000
+3 0 *
Co

1100000
+2 0 *

+1 1 