
CASCADE Topology V1, (c) Matra-Datavision
Locations 1
1
-1.000000000000000 0.000000000000000 0.000000000000000 -0.000000000000002 
0.000000000000000 -0.000000000000000 1.000000000000000 340.050000000000068 
0.000000000000000 1.000000000000000 0.000000000000000 -155.650000000000006 
Curve2ds 57
2 0.00000000000000000 0.00000000000000000 1.00000000000000000 0.00000000000000000 -0.00000000000000000 1.00000000000000000 109.53499999999999659
1 0.00000000000000000 0.00000000000000000 1.00000000000000000 0.00000000000000000 
1 0.00000000000000000 0.00000000000000000 1.00000000000000000 0.00000000000000000 
2 0.00000000000000000 0.00000000000000000 1.00000000000000000 0.00000000000000000 -0.00000000000000000 1.00000000000000000 96.83499999999999375
1 6.28318530717958623 -0.00000000000000000 0.00000000000000000 1.00000000000000000 
1 0.00000000000000000 -0.00000000000000000 0.00000000000000000 1.00000000000000000 
1 0.00000000000000000 356.00000000000000000 1.00000000000000000 0.00000000000000000 
2 0.00000000000000000 0.00000000000000000 1.00000000000000000 0.00000000000000000 -0.00000000000000000 1.00000000000000000 96.83499999999999375
7 0 0  8 23 4  -0.00000000309805337 178.00000030000001061  0.09817476752025599 168.49324638717604330  0.19634953813859485 158.98649261158746526  0.29452430875690361 149.61936289631057662  0.39269907937526227 140.53148468305880670  0.49087384999355699 131.85817271344876644  0.58904862061176266 123.72613464315620035  0.68722339123011211 116.24960511910930450  0.93266031777588554 99.44387969600282418  1.07992247370111727 91.05748251784098102  1.22718462963439379 84.70133710274240002  1.37444678554766142 80.63014002231648192  1.52170894148912339 78.99697272072080523  1.66897109741125860 79.83918113827530760  1.81623325334066998 83.07900966075229121  2.11075756519559832 93.99324133518933877  2.25801972112208205 101.66764478728873655  2.40528187704057927 111.37899911100976169  2.55254403296930832 122.84440506401006132  2.69980618890076585 135.69084394804667681  2.84706834483040438 149.47973816159355920  2.99433050076038221 163.73986943076400280  3.14159265668784604 178.00000029999998219 
 1.57079632369684319 9 2.35619448864331904 7 3.53429173606303060 7 4.71238898348274304 9
7 0 0  8 23 4  1.57079632369684319 -0.00000030000000396  1.66897109431515234 9.50675361282398335  1.76714586493334891 19.01350738840980981  1.86532063555197425 28.38063710363576320  1.96349540616995455 37.46851531693027937  2.06167017678804143 46.14182728658715860  2.15984494740683619 54.27386535683834268  2.25801971802500834 61.75039488089070261  2.50345664457078199 78.55612030399717582  2.65071880049617903 86.94251748206443153  2.79798095642581757 93.29866289708297700  2.94524311233908520 97.36985997721785679  3.09250526827781869 99.00302727927919477  3.23976742420609298 98.16081886163738091  3.38702958013556632 94.92099033924770879  3.68155389199049399 84.00675866481066123  3.82881604791691643 76.33235521250026068  3.97607820383382204 66.62100088925217278  4.12334035977619351 55.15559493508771993  4.27060251569491811 42.30915605212794617  4.41786467162728513 28.52026183823181782  4.56512682755527877 14.26013056923599898  4.71238898348274304 -0.00000029999998024 
 1.57079632369684319 9 2.35619448864331815 7 3.53429173606303060 7 4.71238898348274304 9
7 0 0  7 14 3  1.57079632679489656 274.83499999999997954  1.68299606464439311 274.83499999999997954  1.79519580249410637 273.41279244391625980  1.90739554034257708 270.56838137222803198  2.01959527819417417 266.34561526487232186  2.13179501604213328 260.83226698462385684  2.24399475389187497 254.15530238641053984  2.46839422959086807 238.79006771385604679  2.58059396743965408 230.10179790452093584  2.69279370529170592 220.56584491569083184  2.80499344313761867 210.37118571819155477  2.91719318098932945 199.72972274629864842  3.02939291883834994 188.86486131465596827  3.14159265668784649 177.99999969999998939 
 0.00000000000000000 8 0.78539816494647507 6 1.57079632989295015 8
7 0 0  7 14 3  6.28318530717958623 96.83499999999997954  6.17098556933008968 96.83499999999997954  6.05878583148054162 95.41279244395263959  5.94658609363110457 92.56838137215527240  5.83438635578161069 88.34561526483594207  5.72218661793211680 82.83226698460202897  5.60998688008260782 76.15530238641053984  5.38558740438361472 60.79006771385604679  5.27338766653397073 52.10179790448728454  5.16118792868487475 42.56584491585817887  5.04898819083430084 32.37118571798418998  4.93678845298588698 21.72972274633684719  4.82458871513613285 10.86486131465597182  4.71238897728663630 -0.00000030000001360 
 0.00000000000000000 8 0.78539816494647507 6 1.57079632989295015 8
7 0 0  7 14 3  -0.00000000309805337 177.99999969999998939  0.11219973475144303 188.86486131465596827  0.22439947260090776 199.72972274634958012  0.33659921045051533 210.37118571798782796  0.44879894829989553 220.56584491586545482  0.56099868614940362 230.10179790447728010  0.67319842399892482 238.79006771385604679  0.89759789969791770 254.15530238641053984  1.00979763754708074 260.83226698463113280  1.12199737539765465 266.34561526490142569  1.23419711324606851 270.56838137219892815  1.34639685109607399 273.41279244392353576  1.45859658894540001 274.83499999999997954  1.57079632679489634 274.83499999999997954 
 4.71238897728663630 8 5.49778714223311127 6 6.28318530717958623 8
7 0 0  7 14 3  1.57079632989295015 -0.00000030000001581  1.45859659204345382 10.86486131465596827  1.34639685419392663 21.72972274633139023  1.23419711634471696 32.37118571800601785  1.12199737849516623 42.56584491585090291  1.00979764064550182 52.10179790449546999  0.89759790279597174 60.79006771385603258  0.67319842709697886 76.15530238641052563  0.56099868924751206 82.83226698460202897  0.44879895139791870 88.34561526483594207  0.33659921354865219 92.56838137216982432  0.22439947569893093 95.41279244394900161  0.11219973784949668 96.83499999999997954  0.00000000000000024 96.83499999999997954 
 4.71238897728663630 8 5.49778714223311127 6 6.28318530717958623 8
2 0.00000000000000000 0.00000000000000000 1.00000000000000000 0.00000000000000000 -0.00000000000000000 1.00000000000000000 109.53499999999999659
1 0.00000000000000000 356.00000000000000000 1.00000000000000000 0.00000000000000000 
1 6.28318530717958623 -0.00000000000000000 0.00000000000000000 1.00000000000000000 
1 0.00000000000000000 -0.00000000000000000 0.00000000000000000 1.00000000000000000 
1 0.00000000000000000 178.00000000000000000 1.00000000000000000 0.00000000000000000 
2 0.00000000000000000 0.00000000000000000 1.00000000000000000 0.00000000000000000 -0.00000000000000000 1.00000000000000000 96.83499999999999375
1 0.00000000000000000 -3.14159265358979312 1.00000000000000000 0.00000000000000000 
1 0.00000000000000000 3.14159265358979312 1.00000000000000000 0.00000000000000000 
1 0.00000000000000000 -0.00000000000000000 0.00000000000000000 1.00000000000000000 
2 110.03499999999999659 0.00000000000000000 1.00000000000000000 0.00000000000000000 -0.00000000000000000 1.00000000000000000 109.53499999999999659
8 -1.57079632679489656 0.00000000000000012
1 0.00000000000000000 -3.14159265358979312 -0.00000000000000000 -1.00000000000000000 
1 6.28318530717958623 110.03499999999999659 1.00000000000000000 0.00000000000000000 
1 0.00000000000000000 0.00000000000000000 1.00000000000000000 0.00000000000000000 
2 0.00000000000000000 0.00000000000000000 1.00000000000000000 0.00000000000000000 -0.00000000000000000 1.00000000000000000 110.03499999999999659
1 3.14159265358979312 -1.57079632679489656 -1.00000000000000000 0.00000000000000000 
1 1.57079632679489656 -0.00000000000000000 0.00000000000000000 1.00000000000000000 
1 4.71238898038468967 288.03499999999996817 1.00000000000000000 0.00000000000000000 
1 -1.57079632679489656 288.03499999999996817 1.00000000000000000 0.00000000000000000 
1 0.00000000000000000 219.06999999999999318 1.00000000000000000 0.00000000000000000 
2 0.00000000000000000 0.00000000000000000 1.00000000000000000 0.00000000000000000 -0.00000000000000000 1.00000000000000000 110.03499999999999659
1 3.14159265358979312 1.57079632679489656 -1.00000000000000000 0.00000000000000000 
8 0.00000000000000012 1.57079632679489656
1 0.00000000000000000 3.14159265358979312 -0.00000000000000000 -1.00000000000000000 
1 0.00000000000000000 110.03499999999999659 1.00000000000000000 0.00000000000000000 
8 -3.14159265358979312 -1.57079632679489656
1 0.00000000000000000 -3.14159265358979312 -0.00000000000000000 -1.00000000000000000 
1 6.28318530717958623 110.03499999999999659 1.00000000000000000 0.00000000000000000 
8 1.57079632679489656 3.14159265358979312
1 0.00000000000000000 3.14159265358979312 -0.00000000000000000 -1.00000000000000000 
1 0.00000000000000000 110.03499999999999659 1.00000000000000000 0.00000000000000000 
1 6.28318530717958623 -0.00000000000000000 0.00000000000000000 1.00000000000000000 
1 0.00000000000000000 -0.00000000000000000 0.00000000000000000 1.00000000000000000 
1 0.00000000000000000 178.00000000000000000 1.00000000000000000 0.00000000000000000 
2 0.00000000000000000 0.00000000000000000 1.00000000000000000 0.00000000000000000 -0.00000000000000000 1.00000000000000000 109.53499999999999659
1 -1.57079632679489656 67.96500000000000341 1.00000000000000000 0.00000000000000000 
1 3.14159265358979312 1.57079632679489656 -1.00000000000000000 0.00000000000000000 
1 3.14159265358979312 -1.57079632679489656 -1.00000000000000000 0.00000000000000000 
1 4.71238898038468967 67.96500000000000341 1.00000000000000000 0.00000000000000000 
1 -178.00000000000000000 25.30021247280460273 1.00000000000000000 0.00000000000000000 
1 6.28318530717958623 0.00000000000000000 0.00000000000000000 1.00000000000000000 
1 -0.00000000000000142 25.30021247280458496 1.00000000000000000 0.00000000000000000 
1 3.14159265358979312 178.00000000000000000 0.00000000000000000 -1.00000000000000000 
1 6.28318530717958623 0.00000000000000000 0.00000000000000000 1.00000000000000000 
1 0.00000000000000000 0.00000000000000000 0.00000000000000000 1.00000000000000000 
1 6.28318530717958623 0.00000000000000000 0.00000000000000000 1.00000000000000000 
1 0.00000000000000000 0.00000000000000000 0.00000000000000000 1.00000000000000000 
Curves 25
2 0.00000000000000000 0.00000000000000000 -178.00000000000000000 0.00000000000000000 0.00000000000000000 1.00000000000000000 1.00000000000000000 0.00000000000000000 -0.00000000000000000 -0.00000000000000000 1.00000000000000000 0.00000000000000000 109.53499999999999659
2 0.00000000000000000 0.00000000000000000 -178.00000000000000000 0.00000000000000000 0.00000000000000000 1.00000000000000000 1.00000000000000000 0.00000000000000000 -0.00000000000000000 -0.00000000000000000 1.00000000000000000 0.00000000000000000 96.83499999999999375
1 96.83499999999999375 -0.00000000000002372 -178.00000000000000000 0.00000000000000000 0.00000000000000000 1.00000000000000000 
2 0.00000000000000000 0.00000000000000000 178.00000000000000000 0.00000000000000000 0.00000000000000000 1.00000000000000000 1.00000000000000000 0.00000000000000000 -0.00000000000000000 -0.00000000000000000 1.00000000000000000 0.00000000000000000 96.83499999999999375
3 0.00000000000000000 0.00000000000000000 0.00000000000000000 0.00000000000000000 0.70710678118654757 0.70710678118654757 0.00000000000000000 -0.70710678118654746 0.70710678118654746 1.00000000000000000 0.00000000000000000 -0.00000000000000000 136.94537031239863722 96.83499999999999375
3 0.00000000000000000 0.00000000000000000 0.00000000000000000 0.00000000000000000 -0.70710678118654757 0.70710678118654757 0.00000000000000000 0.70710678118654746 0.70710678118654746 -1.00000000000000000 0.00000000000000000 0.00000000000000000 136.94537031239863722 96.83499999999999375
3 0.00000000000000000 0.00000000000000000 0.00000000000000000 0.00000000000000000 -0.70710678118654757 0.70710678118654757 0.00000000000000000 0.70710678118654746 0.70710678118654746 -1.00000000000000000 0.00000000000000000 0.00000000000000000 136.94537031239863722 96.83499999999999375
2 0.00000000000000000 0.00000000000000000 178.00000000000000000 0.00000000000000000 0.00000000000000000 1.00000000000000000 1.00000000000000000 0.00000000000000000 -0.00000000000000000 -0.00000000000000000 1.00000000000000000 0.00000000000000000 109.53499999999999659
1 -0.00000000000002372 0.00000000000000000 96.83499999999999375 0.00000000000000000 1.00000000000000000 0.00000000000000000 
2 0.00000000000000000 178.00000000000000000 0.00000000000000000 0.00000000000000000 1.00000000000000000 0.00000000000000000 0.00000000000000000 -0.00000000000000000 1.00000000000000000 1.00000000000000000 0.00000000000000000 -0.00000000000000000 96.83499999999999375
2 0.00000000000001341 110.03499999999999659 110.03499999999999659 -1.00000000000000000 0.00000000000000000 0.00000000000000000 -0.00000000000000000 -0.00000000000000000 -1.00000000000000000 -0.00000000000000000 -1.00000000000000000 -0.00000000000000000 0.50000000000000000
2 0.00000000000000000 110.03499999999999659 0.00000000000000000 0.00000000000000000 1.00000000000000000 0.00000000000000000 0.00000000000000000 0.00000000000000000 1.00000000000000000 1.00000000000000000 0.00000000000000000 0.00000000000000000 109.53499999999999659
2 -109.53499999999999659 110.03499999999999659 110.03499999999999659 1.00000000000000000 0.00000000000000000 0.00000000000000000 -0.00000000000000000 0.00000000000000000 1.00000000000000000 0.00000000000000000 -1.00000000000000000 0.00000000000000000 110.03499999999999659
2 0.00000000000000000 -0.00000000000000199 110.03499999999999659 0.00000000000000000 -0.00000000000000011 1.00000000000000000 -0.00000000000000000 -1.00000000000000000 -0.00000000000000011 1.00000000000000000 -0.00000000000000000 -0.00000000000000000 109.53499999999999659
2 109.53499999999999659 110.03499999999999659 110.03499999999999659 1.00000000000000000 0.00000000000000000 0.00000000000000000 -0.00000000000000000 0.00000000000000000 1.00000000000000000 0.00000000000000000 -1.00000000000000000 0.00000000000000000 110.03499999999999659
1 -0.00000000000002683 0.00000000000000000 109.53499999999999659 0.00000000000000000 1.00000000000000000 0.00000000000000000 
2 0.00000000000000000 178.00000000000000000 0.00000000000000000 0.00000000000000000 1.00000000000000000 0.00000000000000000 0.00000000000000000 -0.00000000000000000 1.00000000000000000 1.00000000000000000 0.00000000000000000 -0.00000000000000000 109.53499999999999659
2 0.00000000000000000 -0.00000000000000199 -110.03499999999999659 -0.00000000000000000 0.00000000000000011 1.00000000000000000 0.00000000000000000 -1.00000000000000000 0.00000000000000011 1.00000000000000000 0.00000000000000000 0.00000000000000000 109.53499999999999659
2 109.53499999999999659 110.03499999999999659 -110.03499999999999659 -1.00000000000000000 0.00000000000000000 0.00000000000000000 -0.00000000000000000 -0.00000000000000000 -1.00000000000000000 -0.00000000000000000 -1.00000000000000000 -0.00000000000000000 110.03499999999999659
2 0.00000000000001341 110.03499999999999659 -110.03499999999999659 1.00000000000000000 0.00000000000000000 0.00000000000000000 -0.00000000000000000 0.00000000000000000 1.00000000000000000 0.00000000000000000 -1.00000000000000000 0.00000000000000000 0.50000000000000000
2 -109.53499999999999659 110.03499999999999659 -110.03499999999999659 -1.00000000000000000 0.00000000000000000 0.00000000000000000 -0.00000000000000000 -0.00000000000000000 -1.00000000000000000 -0.00000000000000000 -1.00000000000000000 -0.00000000000000000 110.03499999999999659
1 109.53499999999999659 -0.00000000000002683 -178.00000000000000000 0.00000000000000000 0.00000000000000000 1.00000000000000000 
1 -109.53499999999999659 0.00000000000000000 0.00000000000000000 -0.00000000000000000 -0.00000000000000000 -1.00000000000000000 
7 0 0  1 2 2  109.53499999999999659 -0.00000000000002683 -178.00000000000000000  109.53499999999999659 -0.00000000000002683 -110.03499999999999659 
 0.00000000000000000 2 67.96500000000000341 2
7 0 0  1 2 2  109.53499999999999659 0.00000000000000000 110.03499999999996817  109.53499999999999659 0.00000000000000000 178.00000000000000000 
 288.03499999999996817 2 356.00000000000000000 2
Polygon3D 0
PolygonOnTriangulations 0
Surfaces 20
1 0.00000000000000000 0.00000000000000000 -178.00000000000000000 0.00000000000000000 0.00000000000000000 1.00000000000000000 1.00000000000000000 0.00000000000000000 -0.00000000000000000 -0.00000000000000000 1.00000000000000000 0.00000000000000000 
10 0.00000000000000000 6.28318530717958623 0.00000000000000000 356.00000000000000000
2 0.00000000000000000 0.00000000000000000 -178.00000000000000000 0.00000000000000000 0.00000000000000000 1.00000000000000000 1.00000000000000000 0.00000000000000000 -0.00000000000000000 -0.00000000000000000 1.00000000000000000 0.00000000000000000 109.53499999999999659
2 0.00000000000000000 0.00000000000000000 -178.00000000000000000 0.00000000000000000 0.00000000000000000 1.00000000000000000 1.00000000000000000 0.00000000000000000 -0.00000000000000000 -0.00000000000000000 1.00000000000000000 0.00000000000000000 96.83499999999999375
1 0.00000000000000000 0.00000000000000000 -178.00000000000000000 0.00000000000000000 0.00000000000000000 1.00000000000000000 1.00000000000000000 0.00000000000000000 -0.00000000000000000 -0.00000000000000000 1.00000000000000000 0.00000000000000000 
1 0.00000000000000000 0.00000000000000000 178.00000000000000000 0.00000000000000000 0.00000000000000000 1.00000000000000000 1.00000000000000000 0.00000000000000000 -0.00000000000000000 -0.00000000000000000 1.00000000000000000 0.00000000000000000 
2 0.00000000000000000 0.00000000000000000 0.00000000000000000 0.00000000000000000 1.00000000000000000 0.00000000000000000 0.00000000000000000 -0.00000000000000000 1.00000000000000000 1.00000000000000000 0.00000000000000000 -0.00000000000000000 96.83499999999999375
1 0.00000000000000000 0.00000000000000000 178.00000000000000000 0.00000000000000000 0.00000000000000000 1.00000000000000000 1.00000000000000000 0.00000000000000000 -0.00000000000000000 -0.00000000000000000 1.00000000000000000 0.00000000000000000 
1 0.00000000000000000 178.00000000000000000 0.00000000000000000 0.00000000000000000 1.00000000000000000 0.00000000000000000 0.00000000000000000 -0.00000000000000000 1.00000000000000000 1.00000000000000000 0.00000000000000000 -0.00000000000000000 
5 0.00000000000000000 110.03499999999999659 110.03499999999999659 1.00000000000000000 -0.00000000000000000 -0.00000000000000000 -0.00000000000000000 -0.00000000000000000 -1.00000000000000000 -0.00000000000000000 -1.00000000000000000 -0.00000000000000000 110.03499999999999659 109.53499999999999659
5 0.00000000000000000 110.03499999999999659 -110.03499999999999659 1.00000000000000000 0.00000000000000000 0.00000000000000000 -0.00000000000000000 0.00000000000000000 1.00000000000000000 0.00000000000000000 -1.00000000000000000 0.00000000000000000 110.03499999999999659 109.53499999999999659
1 0.00000000000000000 110.03499999999999659 -110.03499999999999659 -0.00000000000000000 1.00000000000000000 -0.00000000000000000 0.00000000000000000 0.00000000000000000 1.00000000000000000 1.00000000000000000 0.00000000000000000 -0.00000000000000000 
2 0.00000000000000000 0.00000000000000000 0.00000000000000000 0.00000000000000000 1.00000000000000000 0.00000000000000000 0.00000000000000000 -0.00000000000000000 1.00000000000000000 1.00000000000000000 0.00000000000000000 -0.00000000000000000 109.53499999999999659
2 -109.53499999999999659 110.03499999999999659 110.03499999999999659 1.00000000000000000 0.00000000000000000 0.00000000000000000 -0.00000000000000000 0.00000000000000000 1.00000000000000000 0.00000000000000000 -1.00000000000000000 0.00000000000000000 110.03499999999999659
1 -109.53499999999999659 110.03499999999999659 110.03499999999999659 1.00000000000000000 0.00000000000000000 0.00000000000000000 -0.00000000000000000 0.00000000000000000 1.00000000000000000 0.00000000000000000 -1.00000000000000000 0.00000000000000000 
1 109.53499999999999659 110.03499999999999659 110.03499999999999659 1.00000000000000000 0.00000000000000000 0.00000000000000000 -0.00000000000000000 0.00000000000000000 1.00000000000000000 0.00000000000000000 -1.00000000000000000 0.00000000000000000 
5 0.00000000000000000 110.03499999999999659 110.03499999999999659 1.00000000000000000 -0.00000000000000000 -0.00000000000000000 -0.00000000000000000 -0.00000000000000000 -1.00000000000000000 -0.00000000000000000 -1.00000000000000000 -0.00000000000000000 110.03499999999999659 109.53499999999999659
1 0.00000000000000000 178.00000000000000000 0.00000000000000000 0.00000000000000000 1.00000000000000000 0.00000000000000000 0.00000000000000000 -0.00000000000000000 1.00000000000000000 1.00000000000000000 0.00000000000000000 -0.00000000000000000 
2 -109.53499999999999659 110.03499999999999659 -110.03499999999999659 1.00000000000000000 -0.00000000000000000 -0.00000000000000000 -0.00000000000000000 -0.00000000000000000 -1.00000000000000000 -0.00000000000000000 -1.00000000000000000 -0.00000000000000000 110.03499999999999659
1 109.53500000000001080 25.30021247280457430 -0.00000000000000324 1.00000000000000000 0.00000000000000000 0.00000000000000000 -0.00000000000000000 0.00000000000000000 1.00000000000000000 0.00000000000000000 -1.00000000000000000 0.00000000000000000 
1 -109.53500000000002501 25.30021247280458496 -0.00000000000000142 -1.00000000000000000 -0.00000000000000000 -0.00000000000000000 0.00000000000000000 0.00000000000000000 -1.00000000000000000 0.00000000000000000 -1.00000000000000000 0.00000000000000000 
Triangulations 0

TShapes 83
Ve
0.000010000000000
109.534999999999997 -0.000000000000027 -178.000000000000000
0 0

0101101
*
Ed
 0.000000100000000 1 1 0
1  1 0 0.000000000000000 6.283185307179586
2  1 1 0 0.000000000000000 6.283185307179586
2  2 2 0 0.000000000000000 6.283185307179586
4 C0 1 0 2 0
0

0101000
+83 0 -83 0 *
Wi

0101100
+82 0 *
Ve
0.000000100000000
96.834999999999994 -0.000000000000024 -178.000000000000000
0 0

0101101
*
Ed
 0.000000100000000 1 1 0
1  2 0 0.000000000000000 6.283185307179586
2  3 3 0 0.000000000000000 6.283185307179586
2  4 4 0 0.000000000000000 6.283185307179586
0

0101000
+80 0 -80 0 *
Wi

0101100
-79 0 *
Fa
0  0.000000100000000 1 0

0101000
+81 0 +78 0 *
Ve
0.000000108416568
96.834999999999994 -0.000000000000012 -0.000000011902813
0 0

0101101
*
Ve
0.000000100000000
96.834999999999994 -0.000000000000024 178.000000000000000
0 0

0101101
*
Ed
 0.000000100000000 1 1 0
1  3 0 177.999999988097187 356.000000000000000
3  5 6CN 3 0 177.999999988097187 356.000000000000000
0

0101000
+76 0 -75 0 *
Ed
 0.000000100000000 1 1 0
1  3 0 0.000000000000000 177.999999988097187
3  5 6CN 3 0 0.000000000000000 177.999999988097187
0

0101000
+80 0 -76 0 *
Ed
 0.000000100000000 1 1 0
1  4 0 0.000000000000000 6.283185307179586
2  7 3 0 0.000000000000000 6.283185307179586
2  8 5 0 0.000000000000000 6.283185307179586
0

0101000
+75 0 -75 0 *
Wi

0101100
+74 0 +73 0 +79 0 -73 0 -74 0 -72 0 *
Ve
0.000000100000018
-96.834999999999994 0.000000000000000 -0.000000000000018
0 0

0101101
*
Ed
 0.000000100000000 1 1 0
1  5 0 1.570796326856356 4.712388980384690
2  9 3 0 1.570796326856356 4.712388980384690
2  10 6 0 1.570796326856356 4.712388980384690
0

0101000
+76 0 -70 0 *
Ve
0.000000100000052
-0.000000000000024 96.834999999999994 96.834999999999994
0 0

0101101
*
Ed
 0.000000100000000 1 1 0
1  6 0 0.000000000000000 1.570796326794897
2  11 3 0 0.000000000000000 1.570796326794897
2  12 6 0 0.000000000000000 1.570796326794897
0

0101000
+68 0 -70 0 *
Ed
 0.000000100000000 1 1 0
1  7 0 4.712388980323230 6.283185307179586
2  13 3 0 4.712388980323230 6.283185307179586
2  14 6 0 4.712388980323230 6.283185307179586
0

0101000
+76 0 -68 0 *
Wi

0101100
-69 0 +67 0 +66 0 *
Fa
0  0.000000100000000 3 0

0101000
+71 0 +65 0 *
Ve
0.000010000000000
109.534999999999997 -0.000000000000027 178.000000000000000
0 0

0101101
*
Ed
 0.000000100000000 1 1 0
1  8 0 0.000000000000000 6.283185307179586
2  15 7 0 0.000000000000000 6.283185307179586
2  16 2 0 0.000000000000000 6.283185307179586
4 C0 7 0 2 0
0

0101000
+63 0 -63 0 *
Wi

0101100
+62 0 *
Wi

0101100
-72 0 *
Fa
0  0.000000100000000 7 0

0101000
+61 0 +60 0 *
Ve
0.000000100000000
-0.000000000000024 178.000000000000000 96.834999999999994
0 0

0101101
*
Ed
 0.000000100000000 1 1 0
1  9 0 96.834999999999994 178.000000000000000
3  17 18CN 6 0 96.834999999999994 178.000000000000000
0

0101000
+68 0 -58 0 *
Ed
 0.000000100000000 1 1 0
1  10 0 0.000000000000000 6.283185307179586
2  19 6 0 0.000000000000000 6.283185307179586
2  20 8 0 0.000000000000000 6.283185307179586
0

0101000
+58 0 -58 0 *
Wi

0101100
+57 0 -67 0 +69 0 -66 0 -57 0 -56 0 *
Fa
0  0.000000100000000 6 0

0101000
+55 0 *
Ve
0.000000100000076
0.000000000000013 110.034999999999997 109.534999999999997
0 0

0101101
*
Ve
0.000000100000038
0.000000000000013 109.534999999999997 110.035000000000011
0 0

0101101
*
Ed
 0.000000100000000 1 1 0
1  11 0 0.000000000000000 1.570796326794897
3  21 22CN 9 0 0.000000000000000 1.570796326794897
0

0101000
+53 0 -52 0 *
Ve
0.000188970823237
-109.535000000000011 110.035000000000011 0.000000000000000
0 0

0101101
*
Ed
 0.000000100000076 1 1 0
1  12 0 -1.570796326794897 0.000000000000000
2  23 10 0 -1.570796326794897 0.000000000000000
2  24 11 0 -1.570796326794897 0.000000000000000
2  25 9 0 -1.570796326794897 0.000000000000000
2  26 12 0 -1.570796326794897 0.000000000000000
0

0101000
+50 0 -53 0 *
Ve
0.000186938581166
-109.534999999999997 0.000000000000000 110.034999999999997
0 0

0101101
*
Ed
 0.000000100000068 1 1 0
1  13 0 1.570796326794897 3.141592653589793
2  27 13 0 1.570796326794897 3.141592653589793
2  28 14 0 1.570796326794897 3.141592653589793
2  29 9 0 1.570796326794897 3.141592653589793
0

0101000
+48 0 -50 0 *
Ed
 0.000000100000000 1 1 0
1  14 0 -3.141592653589793 -1.570796326794897
2  30 9 0 -3.141592653589793 -1.570796326794897
2  31 2 0 -3.141592653589793 -1.570796326794897
4 G1 9 0 2 0
0

0101000
+52 0 -48 0 *
Wi

0101100
+51 0 +49 0 +47 0 +46 0 *
Fa
0  0.000000100000000 9 0

0101000
+45 0 *
Ve
0.000188970823189
109.534999999999997 0.000000000000000 110.034999999999997
0 0

0101101
*
Ed
 0.000000100000000 1 1 0
1  14 0 1.570796326794897 3.141592653589793
2  30 9 0 1.570796326794897 3.141592653589793
2  32 2 0 1.570796326794897 3.141592653589793
4 G1 9 0 2 0
0

0101000
+43 0 -52 0 *
Ve
0.000186938581143
109.535000000000011 110.035000000000011 0.000000000000000
0 0

0101101
*
Ed
 0.000000100000027 1 1 0
1  15 0 1.570796326794897 3.141592653589793
2  33 13 0 1.570796326794897 3.141592653589793
2  34 15 0 1.570796326794897 3.141592653589793
2  35 9 0 1.570796326794897 3.141592653589793
0

0101000
+43 0 -41 0 *
Ed
 0.000000100000038 1 1 0
1  12 0 0.000000000000000 1.570796326794897
2  23 10 0 0.000000000000000 1.570796326794897
2  24 11 0 0.000000000000000 1.570796326794897
2  36 9 0 0.000000000000000 1.570796326794897
2  37 12 0 0.000000000000000 1.570796326794897
0

0101000
+53 0 -41 0 *
Wi

0101100
+42 0 -40 0 +39 0 -51 0 *
Fa
0  0.000000100000000 9 0

0101000
+38 0 *
Ve
0.000000100000077
0.000000000000013 110.034999999999997 -109.534999999999997
0 0

0101101
*
Ed
 0.000000100000077 1 1 0
1  12 0 -3.141592653589793 -1.570796326794897
2  23 10 0 -3.141592653589793 -1.570796326794897
2  24 11 0 -3.141592653589793 -1.570796326794897
2  38 16 0 -3.141592653589793 -1.570796326794897
2  39 12 0 -3.141592653589793 -1.570796326794897
0

0101000
+36 0 -50 0 *
Ed
 0.000000100000014 1 1 0
1  12 0 1.570796326794897 3.141592653589793
2  23 10 0 1.570796326794897 3.141592653589793
2  24 11 0 1.570796326794897 3.141592653589793
2  40 16 0 1.570796326794897 3.141592653589793
2  41 12 0 1.570796326794897 3.141592653589793
0

0101000
+41 0 -36 0 *
Ve
0.000000100000000
-0.000000000000027 178.000000000000000 109.534999999999997
0 0

0101101
*
Ed
 0.000000100000000 1 1 0
1  16 0 110.034999999999997 178.000000000000000
3  42 43CN 12 0 110.034999999999997 178.000000000000000
0

0101000
+53 0 -33 0 *
Ed
 0.000000100000000 1 1 0
1  17 0 0.000000000000000 6.283185307179586
2  44 12 0 0.000000000000000 6.283185307179586
2  45 17 0 0.000000000000000 6.283185307179586
0

0101000
+33 0 -33 0 *
Wi

0101100
+49 0 +35 0 +34 0 +39 0 -32 0 -31 0 +32 0 *
Fa
0  0.000000100000000 12 0

0101000
+30 0 *
Ve
0.009975291794703
109.534999999999997 0.000000000000000 -110.034999999999997
0 0

0101101
*
Ve
0.000000100000032
0.000000000000013 109.534999999999997 -110.035000000000011
0 0

0101101
*
Ed
 0.000000100000000 1 1 0
1  18 0 1.570796326794897 3.141592653589793
2  30 10 0 1.570796326794897 3.141592653589793
2  46 2 0 1.570796326794897 3.141592653589793
4 G1 10 0 2 0
0

0101000
+28 0 -27 0 *
Ed
 0.000000100000027 1 1 0
1  19 0 1.570796326794897 3.141592653589793
2  33 18 0 1.570796326794897 3.141592653589793
2  47 10 0 1.570796326794897 3.141592653589793
0

0101000
+28 0 -41 0 *
Ed
 0.000000100000000 1 1 0
1  20 0 0.000000000000000 1.570796326794897
3  21 22CN 10 0 0.000000000000000 1.570796326794897
0

0101000
+36 0 -27 0 *
Wi

0101100
+26 0 -25 0 -34 0 -24 0 *
Fa
0  0.000000100000000 10 0

0101000
+23 0 *
Ve
0.000186938581123
-109.534999999999997 0.000000000000000 -110.034999999999997
0 0

0101101
*
Ed
 0.000000100000068 1 1 0
1  21 0 1.570796326794897 3.141592653589793
2  27 18 0 1.570796326794897 3.141592653589793
2  48 10 0 1.570796326794897 3.141592653589793
0

0101000
+21 0 -50 0 *
Ed
 0.000000100000000 1 1 0
1  18 0 -3.141592653589793 -1.570796326794897
2  30 10 0 -3.141592653589793 -1.570796326794897
2  49 2 0 -3.141592653589793 -1.570796326794897
4 G1 10 0 2 0
0

0101000
+27 0 -21 0 *
Wi

0101100
+24 0 -35 0 +20 0 +19 0 *
Fa
0  0.000000100000000 10 0

0101000
+18 0 *
Wi

0101100
+31 0 *
Wi

0101100
-56 0 *
Fa
0  0.000000100000000 17 0

0101000
+16 0 +15 0 *
Ed
 0.000000100000000 1 1 0
1  22 0 67.965000000000003 288.034999999999968
2  50 19 0 67.965000000000003 288.034999999999968
2  51 2 0 67.965000000000003 288.034999999999968
0

0101000
+28 0 -43 0 *
Wi

0101000
+25 0 -40 0 -13 0 *
Fa
0  0.000000100000027 19 0

0101000
+12 0 *
Ed
 0.000000100000000 1 1 0
1  23 0 -110.034999999999997 110.034999999999997
2  52 20 0 -110.034999999999997 110.034999999999997
2  53 2 0 -110.034999999999997 110.034999999999997
0

0101000
+48 0 -21 0 *
Wi

0101000
-10 0 +47 0 -20 0 *
Fa
0  0.000000100000068 20 0

0101000
+9 0 *
Ed
 0.000010000000000 1 1 0
1  24 0 0.000000000000000 67.965000000000003
3  54 55C0 2 0 0.000000000000000 67.965000000000003
0

0101000
-28 0 +83 0 *
Ed
 0.000010000000000 1 1 0
1  25 0 288.034999999999968 356.000000000000000
3  56 57C0 2 0 288.034999999999968 356.000000000000000
0

0101000
+43 0 -63 0 *
Wi

0101000
+42 0 +46 0 +10 0 -19 0 -26 0 -7 0 +82 0 +7 0 +13 0 +6 0 
-62 0 -6 0 *
Fa
0  0.000000100000000 2 0

0101000
+5 0 *
Sh

0101000
-77 0 -64 0 +59 0 -54 0 -44 0 -37 0 +29 0 +22 0 +17 0 +14 0 
+11 0 +8 0 +4 0 *
So

0100000
+3 0 *
Co

1100000
+2 0 *

+1 1 